<?xml version="1.0" encoding="UTF-8" standalone="no"?>
<!-- Created with Inkscape (http://www.inkscape.org/) -->

<svg
   xmlns:dc="http://purl.org/dc/elements/1.1/"
   xmlns:cc="http://creativecommons.org/ns#"
   xmlns:rdf="http://www.w3.org/1999/02/22-rdf-syntax-ns#"
   xmlns:svg="http://www.w3.org/2000/svg"
   xmlns="http://www.w3.org/2000/svg"
   xmlns:sodipodi="http://sodipodi.sourceforge.net/DTD/sodipodi-0.dtd"
   xmlns:inkscape="http://www.inkscape.org/namespaces/inkscape"
   width="264"
   height="300"
   viewBox="0 0 69.849999 79.375"
   version="1.1"
   id="svg227"
   inkscape:version="0.92.5 (2060ec1f9f, 2020-04-08)"
   sodipodi:docname="KUET Logo.svg">
  <title
     id="title613">KUET Logo</title>
  <defs
     id="defs221">
    <clipPath
       clipPathUnits="userSpaceOnUse"
       id="clipPath45">
      <path
         d="M 0,317 H 279 V 0 H 0 Z"
         id="path43"
         inkscape:connector-curvature="0" />
    </clipPath>
  </defs>
  <sodipodi:namedview
     id="base"
     pagecolor="#ffffff"
     bordercolor="#666666"
     borderopacity="1.0"
     inkscape:pageopacity="0.0"
     inkscape:pageshadow="2"
     inkscape:zoom="1.4"
     inkscape:cx="360.88513"
     inkscape:cy="160.16689"
     inkscape:document-units="mm"
     inkscape:current-layer="layer1"
     showgrid="false"
     units="px"
     fit-margin-top="0"
     fit-margin-left="0"
     fit-margin-right="0"
     fit-margin-bottom="0"
     showborder="false"
     inkscape:window-width="1864"
     inkscape:window-height="1016"
     inkscape:window-x="56"
     inkscape:window-y="27"
     inkscape:window-maximized="1" />
  <metadata
     id="metadata224">
    <rdf:RDF>
      <cc:Work
         rdf:about="">
        <dc:format>image/svg+xml</dc:format>
        <dc:type
           rdf:resource="http://purl.org/dc/dcmitype/StillImage" />
        <dc:title>KUET Logo</dc:title>
        <dc:creator>
          <cc:Agent>
            <dc:title>Md. Rifat Hasan Jihan</dc:title>
          </cc:Agent>
        </dc:creator>
        <dc:source>http://www.kuet.ac.bd/libs/img/logo.png</dc:source>
      </cc:Work>
    </rdf:RDF>
  </metadata>
  <g
     inkscape:label="Layer 1"
     inkscape:groupmode="layer"
     id="layer1"
     transform="translate(198.13512,-159.39145)">
    <g
       transform="matrix(0.25035842,0,0,-0.2503944,-198.13512,238.76647)"
       id="g39">
      <g
         id="g41"
         clip-path="url(#clipPath45)">
        <g
           id="g47"
           transform="translate(139.5771,317.0001)">
          <path
             d="m 0,0 c 78.228,0 121.05,-15.945 121.05,-15.945 17.884,-3.827 16.862,-20.667 16.862,-20.667 l 1.473,-42.74 c 0.404,-17.525 -2.473,-53.045 -4.86,-70.413 C 117.474,-273.825 -0.077,-317 -0.077,-317 c 0,0 -117.55,43.175 -134.602,167.235 -2.387,17.368 -5.265,52.888 -4.86,70.413 l 1.473,42.74 c 0,0 -1.022,16.84 16.862,20.667 0,0 42.822,15.945 121.05,15.945 z"
             style="fill:#00a651;fill-opacity:1;fill-rule:nonzero;stroke:none"
             id="path49"
             inkscape:connector-curvature="0" />
        </g>
        <path
           d="M 106.117,268.109 H 93.159 v 2.5 h 12.958 z"
           style="fill:#fff200;fill-opacity:1;fill-rule:nonzero;stroke:none"
           id="path51"
           inkscape:connector-curvature="0" />
        <g
           id="g53"
           transform="translate(106.2974,276.0685)">
          <path
             d="M 0,0 -11.873,3.255 -11.211,5.667 0.661,2.411 Z"
             style="fill:#fff200;fill-opacity:1;fill-rule:nonzero;stroke:none"
             id="path55"
             inkscape:connector-curvature="0" />
        </g>
        <g
           id="g57"
           transform="translate(109.5986,284.2218)">
          <path
             d="m 0,0 -11.234,6.191 1.207,2.19 11.234,-6.192 z"
             style="fill:#fff200;fill-opacity:1;fill-rule:nonzero;stroke:none"
             id="path59"
             inkscape:connector-curvature="0" />
        </g>
        <g
           id="g61"
           transform="translate(115.1719,291.4747)">
          <path
             d="m 0,0 -9.383,8.49 1.678,1.853 9.383,-8.489 z"
             style="fill:#fff200;fill-opacity:1;fill-rule:nonzero;stroke:none"
             id="path63"
             inkscape:connector-curvature="0" />
        </g>
        <g
           id="g65"
           transform="translate(122.1748,296.4449)">
          <path
             d="M 0,0 -6.958,10.723 -4.86,12.083 2.098,1.36 Z"
             style="fill:#fff200;fill-opacity:1;fill-rule:nonzero;stroke:none"
             id="path67"
             inkscape:connector-curvature="0" />
        </g>
        <g
           id="g69"
           transform="translate(130.2095,300.171)">
          <path
             d="m 0,0 -3.958,11.681 2.369,0.801 3.957,-11.68 z"
             style="fill:#fff200;fill-opacity:1;fill-rule:nonzero;stroke:none"
             id="path71"
             inkscape:connector-curvature="0" />
        </g>
        <path
           d="m 140.559,301.21 h -2.5 v 12.255 h 2.5 z"
           style="fill:#fff200;fill-opacity:1;fill-rule:nonzero;stroke:none"
           id="path73"
           inkscape:connector-curvature="0" />
        <path
           d="m 185.84,267.715 h -12.957 v 2.5 h 12.957 z"
           style="fill:#fff200;fill-opacity:1;fill-rule:nonzero;stroke:none"
           id="path75"
           inkscape:connector-curvature="0" />
        <g
           id="g77"
           transform="translate(172.7031,275.6749)">
          <path
             d="M 0,0 -0.661,2.411 11.211,5.667 11.872,3.255 Z"
             style="fill:#fff200;fill-opacity:1;fill-rule:nonzero;stroke:none"
             id="path79"
             inkscape:connector-curvature="0" />
        </g>
        <g
           id="g81"
           transform="translate(169.4014,283.8282)">
          <path
             d="m 0,0 -1.207,2.189 11.233,6.192 1.207,-2.19 z"
             style="fill:#fff200;fill-opacity:1;fill-rule:nonzero;stroke:none"
             id="path83"
             inkscape:connector-curvature="0" />
        </g>
        <g
           id="g85"
           transform="translate(163.8281,291.0811)">
          <path
             d="M 0,0 -1.678,1.854 7.706,10.343 9.383,8.489 Z"
             style="fill:#fff200;fill-opacity:1;fill-rule:nonzero;stroke:none"
             id="path87"
             inkscape:connector-curvature="0" />
        </g>
        <g
           id="g89"
           transform="translate(156.8262,296.0514)">
          <path
             d="m 0,0 -2.098,1.36 6.957,10.723 2.098,-1.36 z"
             style="fill:#fff200;fill-opacity:1;fill-rule:nonzero;stroke:none"
             id="path91"
             inkscape:connector-curvature="0" />
        </g>
        <g
           id="g93"
           transform="translate(148.791,299.7774)">
          <path
             d="m 0,0 -2.369,0.802 3.958,11.68 2.368,-0.801 z"
             style="fill:#fff200;fill-opacity:1;fill-rule:nonzero;stroke:none"
             id="path95"
             inkscape:connector-curvature="0" />
        </g>
        <g
           id="g97"
           transform="translate(105.3813,263.9454)">
          <path
             d="m 0,0 c 0,0 -7.783,32.027 28.109,38.009 5.193,0.866 10.509,0.651 15.584,-0.747 11.12,-3.064 28.882,-12.023 24.605,-37.773 L 68.297,-18.54 H 0 Z"
             style="fill:#ffffff;fill-opacity:1;fill-rule:nonzero;stroke:none"
             id="path99"
             inkscape:connector-curvature="0" />
        </g>
        <g
           id="g101"
           transform="translate(137.021,292.1646)">
          <path
             d="m 0,0 -2.639,-9.078 c -0.304,-1.047 -0.632,-2.095 -0.962,-3.147 -1.052,-3.362 -2.14,-6.839 -2.448,-10.345 -0.511,-5.818 0.903,-11.437 3.98,-15.824 0.987,-1.408 2.113,-2.674 3.344,-3.763 0.544,-0.485 0.942,-0.815 1.175,-0.994 0.28,0.275 0.536,0.58 0.763,0.854 6.234,7.567 3.794,17.794 1.785,23.217 -1.91,5.153 -3.387,9.53 -4.385,14.142 C 0.357,-3.753 0.113,-1.271 0,0 m 2.526,-44.289 c -0.308,0 -0.764,0.359 -1.9,1.371 -1.304,1.152 -2.481,2.477 -3.514,3.95 -3.212,4.579 -4.688,10.433 -4.157,16.485 0.316,3.614 1.421,7.144 2.489,10.557 0.327,1.045 0.654,2.087 0.956,3.127 L -0.657,1.322 H 0.892 L 0.929,0.862 C 0.933,0.822 1.26,-3.194 1.59,-4.727 2.576,-9.281 4.041,-13.62 5.936,-18.732 8.02,-24.357 10.537,-34.98 3.984,-42.933 3.665,-43.32 3.288,-43.766 2.848,-44.145 l -10e-4,-10e-4 c -0.106,-0.089 -0.202,-0.143 -0.321,-0.143"
             style="fill:#ff0000;fill-opacity:1;fill-rule:nonzero;stroke:none"
             id="path103"
             inkscape:connector-curvature="0" />
        </g>
        <g
           id="g105"
           transform="translate(137.0527,255.4845)">
          <path
             d="M 0,0 C 0,0 -4.652,9.447 0.546,17.298 0.546,17.298 7.596,5.745 0,0"
             style="fill:#ff0000;fill-opacity:1;fill-rule:nonzero;stroke:none"
             id="path107"
             inkscape:connector-curvature="0" />
        </g>
        <g
           id="g109"
           transform="translate(83.4897,142.8687)">
          <path
             d="m 0,0 5.836,0.192 5.832,-0.039 5.846,-0.206 5.821,-0.525 5.779,-0.825 5.419,-0.967 5.384,-1.155 5.343,-1.37 5.274,-1.648 4.328,-1.682 1.148,-0.376 V -8.6 l 1.148,0.375 4.328,1.682 5.274,1.648 5.343,1.37 5.385,1.155 5.419,0.967 5.779,0.825 5.82,0.525 5.846,0.206 5.832,0.039 5.837,-0.192 5.322,-0.451 26.576,121.75 -3.822,0.74 -4.411,0.53 -4.448,0.382 -4.462,0.288 -7.585,0.278 -7.58,-0.103 -7.56,-0.512 -5.636,-0.671 -5.6,-0.943 -5.545,-1.226 -5.433,-1.602 -4.505,-1.666 -4.458,-1.841 -4.293,-2.143 -4.057,-2.541 -3.878,-2.83 -3.257,-2.708 -0.231,-0.192 -0.206,-0.172 c -10e-4,0 -10e-4,0 -0.002,-0.001 l -0.94,-0.781 -0.939,0.781 c -10e-4,0.001 -0.002,0.001 -0.002,0.001 l -0.207,0.172 -0.23,0.191 -3.257,2.709 -3.878,2.829 -4.058,2.542 -4.292,2.143 -4.458,1.841 -4.505,1.666 -5.434,1.602 -5.545,1.226 -5.6,0.943 -5.635,0.67 -7.56,0.513 -7.58,0.102 -7.586,-0.277 -4.461,-0.288 -4.448,-0.382 -4.411,-0.53 -3.823,-0.74 26.576,-121.75 z"
             style="fill:#ffffff;fill-opacity:1;fill-rule:nonzero;stroke:none"
             id="path111"
             inkscape:connector-curvature="0" />
        </g>
        <g
           id="g113"
           transform="translate(156.3535,131.1978)">
          <path
             d="m 0,0 5.385,1.192 5.454,0.997 5.473,0.801 5.622,0.531 5.882,0.208 5.878,0.026 5.823,-0.219 5.691,-0.547 5.617,-0.682 26.728,122.44 h -2.97 L 48.664,6.017 C 48.656,5.977 48.636,5.942 48.619,5.906 48.611,5.888 48.606,5.866 48.596,5.849 48.522,5.725 48.407,5.636 48.272,5.594 48.26,5.59 48.246,5.59 48.233,5.587 48.191,5.577 48.149,5.565 48.104,5.565 c -0.016,0 -0.034,0.004 -0.05,0.005 -0.005,0 -0.011,-0.002 -0.017,-0.002 L 42.196,6.244 36.463,6.586 30.659,6.672 24.783,6.553 19.056,6.214 13.344,5.514 7.918,4.63 2.531,3.559 -2.789,2.289 -7.982,0.782 -12.14,-0.72 l 2.239,-2.239 4.649,1.549 z"
             style="fill:#ffffff;fill-opacity:1;fill-rule:nonzero;stroke:none"
             id="path115"
             inkscape:connector-curvature="0" />
        </g>
        <g
           id="g117"
           transform="translate(153.2715,134.5973)">
          <path
             d="m 0,0 5.367,1.281 5.428,1.08 5.469,0.891 5.77,0.706 5.786,0.344 5.918,0.119 5.85,-0.087 5.791,-0.346 5.356,-0.618 26.638,122.028 H 74.402 L 48.576,7.083 C 48.569,7.052 48.553,7.027 48.542,6.998 48.531,6.972 48.523,6.942 48.509,6.918 48.488,6.882 48.46,6.853 48.433,6.822 48.413,6.801 48.397,6.776 48.375,6.758 48.324,6.718 48.268,6.686 48.205,6.663 48.182,6.655 48.154,6.656 48.13,6.65 48.092,6.643 48.056,6.631 48.016,6.631 c -0.012,0 -0.024,0.003 -0.036,0.004 -0.004,0 -0.008,-0.002 -0.013,-10e-4 L 42.172,7.126 36.388,7.314 30.595,7.276 24.797,7.072 19.036,6.553 13.307,5.734 7.928,4.773 2.585,3.628 -2.707,2.272 -7.916,0.646 l -4.253,-1.655 2.213,-2.213 4.7,1.698 z"
             style="fill:#ffffff;fill-opacity:1;fill-rule:nonzero;stroke:none"
             id="path119"
             inkscape:connector-curvature="0" />
        </g>
        <g
           id="g121"
           transform="translate(208.1895,132.7486)">
          <path
             d="m 0,0 c -0.009,-0.042 -0.029,-0.078 -0.047,-0.115 -0.009,-0.019 -0.013,-0.039 -0.023,-0.056 -0.036,-0.06 -0.082,-0.114 -0.137,-0.157 -0.008,-0.007 -0.019,-0.01 -0.027,-0.016 -0.047,-0.033 -0.098,-0.06 -0.154,-0.078 -0.024,-0.008 -0.051,-0.009 -0.078,-0.014 -0.031,-0.004 -0.061,-0.016 -0.095,-0.016 -0.016,0 -0.034,0.005 -0.051,0.006 -0.006,0.001 -0.012,-0.002 -0.018,-0.001 l -6.122,0.744 -5.644,0.543 -5.764,0.216 -5.836,-0.027 -5.831,-0.206 -5.56,-0.523 -5.425,-0.795 -5.412,-0.989 -5.339,-1.183 -5.195,-1.394 -4.071,-1.357 2.266,-2.267 3.775,1.174 4.34,1.127 4.456,0.986 4.517,0.849 4.553,0.714 4.414,0.54 4.725,0.314 5.127,0.131 4.971,-0.005 4.946,-0.192 4.671,-0.42 L 2.16,-3.71 28.979,119.146 h -2.971 z"
             style="fill:#ffffff;fill-opacity:1;fill-rule:nonzero;stroke:none"
             id="path123"
             inkscape:connector-curvature="0" />
        </g>
        <g
           id="g125"
           transform="translate(139.7065,248.1197)">
          <path
             d="M 0,0 C -0.003,-0.002 -0.004,-0.005 -0.006,-0.008 L 0.202,0.168 Z"
             style="fill:#000000;fill-opacity:1;fill-rule:nonzero;stroke:none"
             id="path127"
             inkscape:connector-curvature="0" />
        </g>
        <g
           id="g129"
           transform="translate(122.373,130.0816)">
          <path
             d="m 0,0 -5.338,1.183 -5.413,0.989 -5.425,0.795 -5.559,0.523 -5.831,0.205 -5.836,0.028 -5.765,-0.216 -5.643,-0.543 -6.122,-0.744 c -0.006,-0.001 -0.012,0.002 -0.018,10e-4 -0.018,-0.002 -0.035,-0.006 -0.052,-0.006 -0.033,0 -0.063,0.011 -0.095,0.016 -0.026,0.005 -0.053,0.006 -0.078,0.014 -0.055,0.018 -0.106,0.045 -0.153,0.078 -0.009,0.006 -0.02,0.009 -0.027,0.015 -0.055,0.043 -0.101,0.098 -0.138,0.157 -0.01,0.018 -0.014,0.038 -0.022,0.057 -0.018,0.037 -0.038,0.073 -0.048,0.115 L -77.57,121.813 h -2.971 l 26.818,-122.856 10.229,1.243 4.67,0.42 4.947,0.192 4.971,0.005 5.127,-0.131 4.724,-0.314 4.414,-0.541 4.553,-0.714 4.518,-0.848 4.456,-0.986 4.34,-1.128 L 7,-5.018 9.267,-2.751 5.195,-1.394 Z"
             style="fill:#ffffff;fill-opacity:1;fill-rule:nonzero;stroke:none"
             id="path131"
             inkscape:connector-curvature="0" />
        </g>
        <g
           id="g133"
           transform="translate(125.4351,133.4869)">
          <path
             d="m 0,0 -5.32,1.27 -5.386,1.071 -5.427,0.884 -5.711,0.699 -5.728,0.34 -5.875,0.119 -5.804,-0.087 -5.734,-0.341 -5.841,-0.676 c -0.006,0 -0.011,0.002 -0.017,0.002 -0.016,-0.002 -0.033,-0.006 -0.05,-0.006 -0.045,0 -0.087,0.013 -0.129,0.023 -0.013,0.003 -0.026,0.003 -0.039,0.007 -0.135,0.042 -0.251,0.131 -0.323,0.255 -0.011,0.017 -0.015,0.039 -0.024,0.057 -0.016,0.036 -0.036,0.071 -0.045,0.111 l -25.918,118.73 h -2.97 l 26.727,-122.44 5.617,0.682 5.692,0.547 5.822,0.219 5.878,-0.027 5.883,-0.208 5.622,-0.53 5.473,-0.801 5.454,-0.997 5.384,-1.193 5.252,-1.409 4.65,-1.549 2.239,2.238 -4.158,1.503 z"
             style="fill:#ffffff;fill-opacity:1;fill-rule:nonzero;stroke:none"
             id="path135"
             inkscape:connector-curvature="0" />
        </g>
        <g
           id="g137"
           transform="translate(128.4355,136.8697)">
          <path
             d="m 0,0 -5.292,1.355 -5.342,1.146 -5.38,0.96 -5.73,0.819 -5.76,0.52 -5.798,0.204 -5.793,0.038 -5.783,-0.189 -5.795,-0.493 c -0.005,0 -0.01,0.002 -0.014,0.002 -0.012,-0.001 -0.024,-0.004 -0.036,-0.004 -0.039,0 -0.076,0.012 -0.113,0.02 -0.026,0.005 -0.052,0.005 -0.076,0.013 -0.062,0.021 -0.12,0.053 -0.17,0.094 -0.022,0.019 -0.038,0.043 -0.057,0.065 -0.028,0.03 -0.056,0.059 -0.077,0.096 -0.014,0.024 -0.022,0.053 -0.033,0.08 -0.011,0.028 -0.027,0.053 -0.034,0.085 l -25.826,118.314 h -2.972 l 26.639,-122.027 5.356,0.618 5.791,0.346 5.85,0.086 5.917,-0.119 5.787,-0.343 5.77,-0.707 5.469,-0.89 5.428,-1.08 5.367,-1.281 5.256,-1.525 4.7,-1.697 2.213,2.213 -4.253,1.654 z"
             style="fill:#ffffff;fill-opacity:1;fill-rule:nonzero;stroke:none"
             id="path139"
             inkscape:connector-curvature="0" />
        </g>
        <g
           id="g141"
           transform="translate(210.3496,129.0387)">
          <path
             d="m 0,0 -10.229,1.243 -4.67,0.42 -4.946,0.191 -4.971,0.006 -5.127,-0.131 -4.725,-0.314 -4.414,-0.54 -4.553,-0.714 -4.517,-0.849 -4.456,-0.986 -4.34,-1.127 -3.775,-1.174 -2.266,2.267 4.071,1.357 5.195,1.394 5.339,1.183 5.412,0.989 5.425,0.795 5.56,0.523 5.831,0.206 5.836,0.027 5.764,-0.216 5.644,-0.543 6.122,-0.744 c 0.006,-10e-4 0.012,0.002 0.018,10e-4 0.017,-10e-4 0.035,-0.006 0.051,-0.006 0.033,0 0.064,0.012 0.095,0.016 0.026,0.005 0.054,0.006 0.078,0.014 0.056,0.018 0.107,0.045 0.153,0.078 0.009,0.006 0.02,0.009 0.028,0.016 0.054,0.043 0.1,0.097 0.137,0.157 0.01,0.017 0.014,0.037 0.023,0.056 0.018,0.037 0.038,0.073 0.047,0.115 l 26.008,119.145 h 2.97 z m -66.136,1.439 4.157,1.502 5.194,1.507 5.32,1.27 5.387,1.071 5.426,0.884 5.712,0.7 5.727,0.339 5.876,0.119 5.804,-0.086 5.733,-0.342 5.841,-0.675 c 0.006,0 0.012,0.001 0.017,0.001 0.016,0 0.034,-0.004 0.05,-0.004 0.045,0 0.087,0.011 0.129,0.021 0.013,0.003 0.027,0.003 0.039,0.007 0.135,0.042 0.25,0.131 0.324,0.255 0.01,0.017 0.015,0.039 0.023,0.057 0.017,0.037 0.037,0.071 0.045,0.111 l 25.919,118.73 h 2.97 L -3.171,4.466 l -5.617,0.682 -5.691,0.547 -5.823,0.219 -5.878,-0.026 -5.883,-0.208 -5.622,-0.531 -5.472,-0.8 -5.454,-0.997 -5.385,-1.193 -5.252,-1.41 -4.649,-1.549 z m -3.111,3.111 4.253,1.654 5.209,1.627 5.292,1.356 5.343,1.145 5.379,0.961 5.729,0.818 5.761,0.52 5.798,0.204 5.793,0.038 5.784,-0.188 5.795,-0.493 c 0.005,-10e-4 0.008,10e-4 0.013,10e-4 0.012,-10e-4 0.024,-0.004 0.035,-0.004 0.041,0 0.077,0.012 0.115,0.02 0.024,0.006 0.052,0.005 0.075,0.013 0.062,0.022 0.119,0.054 0.17,0.094 0.022,0.019 0.038,0.043 0.057,0.065 0.028,0.03 0.056,0.059 0.077,0.096 0.014,0.024 0.022,0.053 0.033,0.08 0.011,0.029 0.027,0.053 0.034,0.085 l 25.826,118.315 h 2.971 L -6.343,8.929 l -5.356,0.618 -5.791,0.346 -5.85,0.086 -5.918,-0.119 -5.786,-0.343 -5.77,-0.706 -5.469,-0.891 -5.428,-1.08 -5.367,-1.281 -5.256,-1.525 -4.7,-1.697 z m -5.419,-2.213 -4.699,1.697 -5.256,1.525 -5.367,1.281 -5.428,1.08 -5.469,0.89 -5.77,0.707 -5.787,0.343 -5.917,0.119 -5.85,-0.086 -5.791,-0.346 -5.356,-0.618 -26.639,122.028 h 2.972 l 25.826,-118.315 c 0.007,-0.032 0.023,-0.057 0.034,-0.085 0.011,-0.027 0.018,-0.056 0.033,-0.08 0.021,-0.037 0.049,-0.066 0.077,-0.096 0.019,-0.022 0.034,-0.046 0.057,-0.065 0.05,-0.041 0.108,-0.073 0.17,-0.094 0.024,-0.008 0.05,-0.008 0.076,-0.013 0.037,-0.008 0.074,-0.02 0.113,-0.02 0.012,0 0.024,0.003 0.036,0.004 0.004,0 0.009,-0.002 0.014,-0.002 l 5.795,0.493 5.783,0.189 5.793,-0.038 5.798,-0.204 5.76,-0.52 5.73,-0.819 5.38,-0.96 5.342,-1.145 5.292,-1.356 5.209,-1.627 4.253,-1.654 z m -3.136,-3.137 -4.65,1.549 -5.252,1.409 -5.384,1.194 -5.454,0.997 -5.473,0.8 -5.622,0.531 -5.883,0.208 -5.878,0.026 -5.822,-0.219 -5.691,-0.547 -5.617,-0.682 -26.727,122.44 h 2.969 l 25.918,-118.73 c 0.009,-0.04 0.029,-0.074 0.045,-0.111 0.009,-0.018 0.013,-0.04 0.024,-0.057 0.073,-0.124 0.189,-0.213 0.323,-0.255 0.013,-0.004 0.026,-0.004 0.039,-0.007 0.042,-0.01 0.085,-0.022 0.129,-0.022 0.017,0 0.034,0.004 0.051,0.005 0.006,0 0.011,-0.001 0.017,-0.001 l 5.841,0.675 5.733,0.341 5.804,0.087 5.875,-0.119 5.728,-0.34 5.712,-0.699 5.426,-0.884 5.387,-1.071 5.319,-1.27 5.194,-1.507 4.158,-1.503 z m -3.174,-3.175 -3.775,1.173 -4.34,1.128 -4.456,0.986 -4.518,0.848 -4.552,0.714 -4.414,0.541 -4.724,0.314 -5.128,0.131 -4.971,-0.006 -4.946,-0.191 -4.67,-0.42 L -141.699,0 -168.518,122.855 h 2.971 L -139.539,3.71 c 0.009,-0.042 0.03,-0.078 0.047,-0.115 0.009,-0.019 0.013,-0.039 0.023,-0.057 0.036,-0.059 0.082,-0.114 0.137,-0.157 0.008,-0.006 0.019,-0.009 0.027,-0.015 0.047,-0.033 0.098,-0.06 0.154,-0.078 0.025,-0.008 0.051,-0.009 0.077,-0.014 0.032,-0.005 0.062,-0.016 0.095,-0.016 0.017,0 0.035,0.004 0.052,0.006 0.006,0.001 0.012,-0.002 0.018,-10e-4 l 6.122,0.744 5.644,0.543 5.764,0.216 5.836,-0.028 5.832,-0.205 5.559,-0.523 5.424,-0.795 5.413,-0.989 5.338,-1.183 5.195,-1.394 4.072,-1.357 z m -73.96,139.844 4.411,0.53 4.448,0.382 4.461,0.288 7.586,0.277 7.58,-0.102 7.56,-0.513 5.636,-0.67 5.599,-0.943 5.546,-1.226 5.433,-1.601 4.505,-1.666 4.458,-1.842 4.293,-2.143 4.057,-2.542 3.878,-2.829 3.257,-2.708 0.23,-0.192 0.207,-0.172 c 0,0 10e-4,0 0.002,-0.001 l 0.939,-0.781 0.94,0.781 c 10e-4,0.001 10e-4,0.001 0.002,0.001 l 0.206,0.172 0.231,0.192 3.257,2.708 3.878,2.83 4.057,2.541 4.293,2.143 4.458,1.842 4.506,1.666 5.432,1.601 5.545,1.226 5.6,0.943 5.636,0.671 7.56,0.512 7.58,0.103 7.585,-0.278 4.462,-0.288 4.448,-0.382 4.411,-0.53 3.823,-0.74 -26.577,-121.75 -5.322,0.451 -5.837,0.192 -5.832,-0.039 -5.846,-0.206 -5.82,-0.525 -5.779,-0.825 -5.419,-0.967 -5.385,-1.155 L -60.1,8.936 -65.374,7.287 -69.702,5.605 -70.85,5.23 V 5.229 l -1.148,0.376 -4.328,1.682 -5.274,1.649 -5.342,1.369 -5.385,1.155 -5.419,0.967 -5.779,0.825 -5.821,0.525 -5.845,0.206 -5.833,0.039 -5.836,-0.192 -5.323,-0.451 -26.576,121.75 z M 28.096,123.48 c -0.004,0.041 -0.012,0.08 -0.024,0.118 -0.01,0.032 -0.022,0.065 -0.038,0.095 -0.017,0.034 -0.039,0.064 -0.063,0.094 -0.023,0.027 -0.046,0.053 -0.073,0.076 -0.028,0.023 -0.058,0.043 -0.09,0.061 -0.034,0.018 -0.068,0.034 -0.105,0.046 -0.017,0.006 -0.031,0.017 -0.049,0.021 -0.021,0.005 -0.041,-0.001 -0.062,0.001 -0.021,0.003 -0.039,0.012 -0.061,0.012 h -3.432 l 0.731,3.354 c 0.005,0.021 -10e-4,0.042 0.002,0.063 0.002,0.021 0.012,0.038 0.012,0.059 0,0.019 -0.009,0.034 -0.01,0.051 -0.004,0.041 -0.013,0.08 -0.024,0.117 -0.01,0.033 -0.022,0.065 -0.038,0.096 -0.018,0.033 -0.04,0.064 -0.063,0.094 -0.022,0.027 -0.046,0.053 -0.072,0.076 -0.029,0.023 -0.06,0.043 -0.092,0.061 -0.032,0.018 -0.066,0.034 -0.104,0.046 -0.017,0.005 -0.031,0.017 -0.049,0.021 -0.021,0.005 -0.041,-0.001 -0.063,0.001 -0.02,0.002 -0.038,0.012 -0.059,0.012 h -3.433 l 0.732,3.354 c 0.005,0.021 -10e-4,0.041 0.001,0.063 0.002,0.02 0.012,0.038 0.012,0.059 0,0.018 -0.008,0.033 -0.01,0.05 -0.004,0.041 -0.011,0.08 -0.023,0.118 -0.011,0.032 -0.023,0.065 -0.038,0.095 -0.018,0.034 -0.039,0.064 -0.064,0.094 -0.021,0.027 -0.045,0.053 -0.072,0.076 -0.027,0.023 -0.059,0.043 -0.091,0.061 -0.033,0.018 -0.067,0.034 -0.104,0.046 -0.017,0.006 -0.031,0.017 -0.049,0.021 -0.022,0.005 -0.041,-0.001 -0.063,10e-4 -0.02,0.003 -0.039,0.012 -0.059,0.012 h -3.434 l 0.733,3.354 c 0,0.002 -0.001,0.004 0,0.007 0,0.002 0.002,0.004 0.002,0.006 0.007,0.037 0,0.071 0,0.107 0,0.039 0.005,0.078 -10e-4,0.114 -0.007,0.037 -0.027,0.068 -0.04,0.102 -0.015,0.035 -0.024,0.071 -0.043,0.101 -0.021,0.031 -0.05,0.052 -0.075,0.078 -0.026,0.027 -0.048,0.058 -0.08,0.08 -0.028,0.02 -0.065,0.028 -0.097,0.043 -0.036,0.015 -0.067,0.037 -0.105,0.046 -0.003,0.001 -0.006,-0.001 -0.008,0 -0.002,0 -0.004,0.002 -0.006,0.002 l -4.44,0.858 -4.471,0.539 -4.479,0.385 -4.49,0.289 -7.631,0.279 -7.639,-0.103 -7.621,-0.517 -5.692,-0.677 -5.657,-0.952 -5.612,-1.242 -5.508,-1.623 -4.562,-1.686 -4.515,-1.866 -4.378,-2.187 -4.139,-2.592 -3.941,-2.875 -3.517,-2.923 -0.004,-0.003 -0.208,-0.176 -0.201,-0.17 -0.201,0.171 c -0.002,0.003 -0.003,0.005 -0.005,0.007 l -0.106,0.087 -0.002,0.002 -3.615,3.005 -3.941,2.875 -4.139,2.592 -4.378,2.186 -4.515,1.866 -4.562,1.687 -5.508,1.623 -5.613,1.242 -5.656,0.952 -5.693,0.677 -7.621,0.517 -7.638,0.103 -7.63,-0.279 -4.491,-0.289 -4.48,-0.385 -4.471,-0.539 -4.44,-0.858 c -0.002,0 -0.004,-0.002 -0.005,-0.002 -0.003,-0.001 -0.005,0 -0.008,0 -0.039,-0.009 -0.07,-0.031 -0.105,-0.046 -0.033,-0.015 -0.069,-0.024 -0.098,-0.043 -0.031,-0.022 -0.053,-0.053 -0.079,-0.08 -0.025,-0.026 -0.054,-0.048 -0.074,-0.078 -0.02,-0.03 -0.03,-0.067 -0.043,-0.101 -0.014,-0.034 -0.033,-0.066 -0.041,-0.102 -0.007,-0.036 -10e-4,-0.076 -10e-4,-0.114 10e-4,-0.036 -0.008,-0.07 0,-0.107 0,-0.002 0.002,-0.004 0.003,-0.006 0,-0.003 -0.001,-0.005 0,-0.008 l 0.732,-3.353 h -3.434 c -0.021,0 -0.039,-0.009 -0.06,-0.012 -0.021,-0.002 -0.041,0.004 -0.062,-10e-4 -0.018,-0.004 -0.032,-0.016 -0.049,-0.021 -0.037,-0.012 -0.071,-0.028 -0.104,-0.046 -0.033,-0.018 -0.063,-0.038 -0.091,-0.062 -0.027,-0.022 -0.051,-0.048 -0.073,-0.075 -0.023,-0.03 -0.045,-0.06 -0.063,-0.094 -0.016,-0.03 -0.028,-0.063 -0.038,-0.095 -0.012,-0.038 -0.02,-0.077 -0.023,-0.118 -0.002,-0.018 -0.011,-0.032 -0.011,-0.05 0,-0.021 0.01,-0.039 0.012,-0.06 0.002,-0.021 -0.003,-0.041 0.001,-0.063 l 0.732,-3.353 h -3.432 c -0.021,0 -0.039,-0.01 -0.059,-0.012 -0.021,-0.002 -0.042,0.004 -0.063,-0.001 -0.018,-0.004 -0.032,-0.016 -0.049,-0.021 -0.037,-0.012 -0.071,-0.028 -0.105,-0.046 -0.032,-0.018 -0.063,-0.038 -0.09,-0.062 -0.027,-0.022 -0.051,-0.048 -0.073,-0.076 -0.024,-0.029 -0.046,-0.06 -0.063,-0.093 -0.016,-0.031 -0.028,-0.063 -0.038,-0.096 -0.012,-0.038 -0.02,-0.077 -0.024,-0.117 -0.001,-0.018 -0.01,-0.032 -0.01,-0.051 0,-0.021 0.01,-0.039 0.012,-0.059 0.002,-0.021 -0.003,-0.042 0.001,-0.063 l 0.732,-3.354 h -3.433 c -0.021,0 -0.04,-0.009 -0.06,-0.012 -0.021,-0.002 -0.042,0.004 -0.063,-0.001 -0.018,-0.004 -0.031,-0.016 -0.048,-0.021 -0.037,-0.012 -0.072,-0.028 -0.105,-0.046 -0.032,-0.018 -0.063,-0.038 -0.091,-0.062 -0.027,-0.022 -0.05,-0.048 -0.072,-0.075 -0.024,-0.03 -0.046,-0.06 -0.063,-0.094 -0.016,-0.03 -0.028,-0.063 -0.038,-0.095 -0.012,-0.038 -0.02,-0.077 -0.024,-0.118 -0.001,-0.018 -0.01,-0.032 -0.01,-0.05 0,-0.021 0.01,-0.039 0.012,-0.06 0.002,-0.021 -0.003,-0.041 0.001,-0.063 l 27.083,-124.063 c 0.009,-0.044 0.03,-0.081 0.048,-0.12 0.008,-0.017 0.012,-0.034 0.021,-0.05 0.073,-0.123 0.188,-0.212 0.323,-0.253 0.02,-0.006 0.041,-0.007 0.061,-0.01 0.036,-0.007 0.07,-0.019 0.107,-0.019 0.017,0 0.035,0.004 0.052,0.006 0.006,10e-4 0.012,-0.002 0.018,-0.001 l 10.729,1.304 4.624,0.416 4.895,0.189 4.934,0.006 5.088,-0.131 4.669,-0.31 4.364,-0.535 4.517,-0.708 4.482,-0.842 4.418,-0.977 4.294,-1.114 4.079,-1.269 c 0.056,-0.017 0.114,-0.026 0.171,-0.026 0.067,0 0.133,0.015 0.197,0.039 0.02,0.007 0.036,0.018 0.055,0.027 0.044,0.022 0.086,0.049 0.125,0.083 0.008,0.008 0.02,0.011 0.028,0.02 l 8.882,8.881 0.51,0.509 V 4.36 l 0.168,0.168 0.168,-0.168 h 0.001 V 4.359 l 9.392,-9.39 c 0.008,-0.009 0.019,-0.012 0.028,-0.02 0.038,-0.034 0.081,-0.06 0.125,-0.083 0.018,-0.009 0.035,-0.02 0.054,-0.027 0.064,-0.024 0.131,-0.039 0.198,-0.039 0.056,0 0.114,0.009 0.17,0.026 l 4.079,1.269 4.295,1.115 4.418,0.977 4.482,0.841 4.517,0.708 4.363,0.535 4.669,0.31 5.088,0.131 4.935,-0.006 4.895,-0.189 4.623,-0.416 10.73,-1.304 c 0.006,-10e-4 0.012,0.002 0.017,0.001 0.018,-0.001 0.036,-0.006 0.053,-0.006 0.037,0 0.071,0.012 0.107,0.019 0.02,0.003 0.041,0.004 0.06,0.01 0.135,0.042 0.251,0.13 0.324,0.253 0.009,0.016 0.013,0.033 0.02,0.05 0.018,0.039 0.04,0.076 0.05,0.12 l 27.082,124.064 c 0.005,0.021 -0.001,0.041 0.001,0.063 0.002,0.02 0.011,0.038 0.011,0.059 0,0.018 -0.007,0.033 -0.009,0.05"
             style="fill:#000000;fill-opacity:1;fill-rule:nonzero;stroke:none"
             id="path143"
             inkscape:connector-curvature="0" />
        </g>
        <g
           id="g145"
           transform="translate(10.3979,242.443)">
          <path
             d="m 0,0 c -0.627,0.644 -0.934,1.449 -0.934,2.446 0,0.816 0.154,0.949 0.177,0.95 0.741,0 0.852,-1.321 0.852,-2.108 C 0.095,0.69 0.054,0.28 0,0 m 7.996,-59.396 -2.135,-4.003 19.807,3.169 0.483,-3.476 2.837,0.447 -1.433,8.498 -2.318,23.163 -0.118,0.381 -1.521,24.516 -0.315,5.687 H 22.81 c -2.659,0 -5.316,-0.024 -7.974,-0.048 -2.241,-0.02 -4.483,-0.04 -6.725,-0.045 1.615,1.656 2.974,3.601 4.057,5.806 1.302,-2.76 2.957,-4.104 5.039,-4.104 1.547,0 2.907,0.671 4.44,2.208 1.084,1.3 1.842,2.717 2.318,4.331 L 24.19,7.899 23.403,7.769 C 22.864,7.679 22.308,7.679 21.908,7.678 21.321,7.643 20.895,7.748 20.646,7.995 20.386,8.257 20.273,8.719 20.315,9.4 v 0.189 c 0.581,0.027 1.085,0.103 1.462,0.233 0.792,0.397 1.146,0.982 1.146,1.897 0,1.157 -0.373,2.039 -1.112,2.671 -0.738,0.738 -1.636,1.112 -2.672,1.112 -0.994,0 -1.843,-0.515 -2.463,-1.507 -0.434,-0.762 -0.645,-1.633 -0.645,-2.663 0,-1.164 0.362,-2.557 1.121,-4.291 0.52,-0.982 1.215,-2.075 2.209,-2.543 C 18.784,4.03 18.305,3.815 17.843,3.813 16.736,3.749 15.933,5.267 15.448,6.597 14.824,8.112 14.521,9.599 14.521,11.139 v 2.784 L 10.236,11.528 V 11.235 C 10.236,8.428 9.449,5.756 7.895,3.286 6.645,1.232 4.985,-0.303 3.144,-1.135 2.971,-1.19 2.698,-1.243 2.391,-1.181 2.375,-1.177 2.359,-1.174 2.345,-1.17 2.522,-0.781 2.659,-0.378 2.752,0.036 2.979,1.033 2.896,1.831 2.859,2.172 2.815,2.59 2.734,3.366 2.301,4.165 2.173,4.477 1.998,4.766 1.78,5.025 1.647,5.182 1.297,5.595 0.702,5.852 0.111,6.104 -0.553,6.134 -1.222,5.938 -1.867,5.748 -2.412,5.355 -2.842,4.771 -3.494,3.882 -3.487,2.938 -3.482,2.18 c 0.003,-0.433 0.01,-1.58 0.719,-2.838 0.33,-0.586 0.768,-1.112 1.284,-1.546 l -4.592,-3.674 1.341,-4.155 0.581,0.654 c 1.876,2.11 3.79,4.163 5.291,5.676 0.397,-0.086 0.804,-0.167 1.222,-0.242 l 0.319,-0.066 c 0.518,-0.108 0.646,-0.138 0.748,-0.127 2.948,0 5.92,0.025 8.88,0.049 2.789,0.023 5.566,0.045 8.302,0.048 C 20.7,-5 20.794,-5.986 20.958,-6.952 l 1.225,-19.877 -3.275,-0.183 c 1.301,1.302 1.874,2.593 1.792,3.994 -0.096,1.425 -0.859,2.486 -2.221,3.1 1.315,1.895 1.931,3.772 1.835,5.593 -0.104,1.557 -0.804,2.834 -2.204,4.018 -1.241,1.05 -2.676,1.486 -4.503,1.373 -1.979,-0.104 -3.634,-0.846 -5.072,-2.284 -1.361,-1.465 -1.973,-3.164 -1.87,-5.211 0.095,-1.135 0.437,-2.072 1.15,-3.142 0.794,-1.134 1.861,-1.676 3.074,-1.563 0.997,0.112 1.694,0.464 2.259,1.143 0.534,0.638 0.792,1.406 0.792,2.348 0,0.853 -0.298,1.643 -0.892,2.354 -0.627,0.731 -1.319,1.044 -2.312,1.044 -0.031,0 -0.061,-0.002 -0.093,-0.006 0.471,1.03 1.196,1.549 2.218,1.613 0.835,0 1.521,-0.3 2.038,-0.891 0.636,-0.727 0.956,-1.414 1.038,-2.227 0.078,-0.855 -0.106,-1.678 -0.633,-2.839 -0.426,-0.934 -1.092,-1.612 -1.828,-1.857 l -0.369,-0.123 0.155,-2.162 0.424,-0.039 c 2.72,-0.247 2.803,-1.245 2.834,-1.601 0.066,-0.47 -0.115,-1.005 -0.606,-1.79 -0.399,-0.639 -0.854,-1.02 -1.254,-1.021 -1.33,-0.096 -2.955,-0.096 -4.957,0 -1.641,0.096 -3.285,0.193 -5.024,0.29 l -0.232,0.012 -2.049,-2.163 0.149,-2.066 19.616,1.256 c 0.021,-0.254 0.034,-0.507 0.049,-0.755 0.025,-0.447 0.051,-0.881 0.101,-1.289 l 0.055,-0.438 h 0.075 l 1.654,-16.438 -8.934,-0.924 c 0.833,0.775 1.612,1.771 2.39,3.046 1.086,2.062 1.502,3.782 1.308,5.418 -0.205,1.541 -0.722,2.869 -1.646,4.202 -1.111,1.413 -2.487,2.043 -4.205,1.928 -1.233,-0.113 -2.229,-0.69 -2.867,-1.647 -0.632,-0.843 -0.885,-1.902 -0.773,-3.253 0.107,-0.954 0.535,-1.849 1.206,-2.519 0.696,-0.697 1.621,-1.029 2.534,-0.916 0.594,0.066 1.415,0.382 2.247,1.419 v -0.001 c 0.184,-2.03 -0.89,-4.085 -3.114,-5.953 -2.162,-1.88 -4.279,-2.882 -6.432,-3.064 H 4.409 l 0.162,-2.597 19.731,2.032 c 0.071,-0.698 0.133,-1.608 0.137,-1.652 l 0.507,-3.375 -16.705,-2.721 z"
             style="fill:#ffffff;fill-opacity:1;fill-rule:nonzero;stroke:none"
             id="path147"
             inkscape:connector-curvature="0" />
        </g>
        <g
           id="g149"
           transform="translate(51.395,113.0318)">
          <path
             d="m 0,0 -7.577,-3.402 c 1.23,2.717 1.926,5.467 2.112,8.349 C -3.542,3.475 -1.675,1.785 0,0 m -14.991,43.709 c 1.028,0.981 1.747,2.093 2.145,3.315 0.983,-0.565 1.683,-1.537 1.993,-2.783 0.223,-0.964 0.141,-2.088 -0.26,-3.498 z m 43.473,-74.723 c -0.921,0.934 -1.876,1.9 -2.736,2.875 l -0.313,0.355 -2.953,-2.33 c 0.038,0.163 0.074,0.319 0.108,0.469 0.224,0.98 0.386,1.687 0.382,2.179 0.215,1.821 -0.028,3.159 -0.773,4.222 -0.714,0.952 -1.843,1.639 -2.983,1.827 -0.928,0.231 -1.841,0.244 -2.82,0.028 0.326,1.561 0.356,2.92 0.093,4.148 -0.209,0.837 -0.796,1.826 -1.583,3 -0.191,0.382 -0.358,0.74 -0.525,1.097 -0.034,0.074 -0.067,0.146 -0.102,0.219 1.377,-0.22 2.555,-0.178 3.636,0.452 1.268,0.807 1.963,1.944 2.066,3.416 0,0.411 -0.009,1.581 -0.098,3.616 -0.06,0.711 -0.026,1.603 0.55,1.859 0.002,0 0.237,0.113 1.229,-0.257 0.351,-0.1 0.643,-0.227 0.951,-0.363 0.253,-0.11 0.5,-0.218 0.767,-0.307 l 0.37,-0.123 1.087,1.708 -0.247,0.281 c -0.775,0.886 -1.734,1.491 -2.862,1.798 -1.265,0.316 -2.356,0.212 -3.462,-0.342 -2.576,-1.486 -3.864,-4.513 -3.828,-9.001 -0.517,-0.186 -1.506,-0.182 -2.834,2.064 -0.286,0.478 -0.286,0.478 -0.948,1.705 -0.052,0.107 -0.132,0.24 -0.212,0.374 -0.065,0.108 -0.13,0.216 -0.164,0.281 l -9.35,21.201 -5.402,16.687 -1.191,4.329 -5.348,-1.277 c 0.886,1.116 1.678,2.507 2.366,4.156 0.963,2.314 1.225,4.372 0.797,6.291 -0.529,2.333 -1.614,4.332 -3.213,5.931 -1.503,1.597 -3.406,2.747 -5.815,3.514 l -0.683,0.218 0.237,-5.316 1.409,-0.94 c -0.205,-1.719 -0.771,-2.604 -1.858,-2.921 h -0.242 l -3.131,2.485 -1.845,-3.429 0.363,-0.255 c 4.896,-3.437 8.131,-5.869 9.755,-7.118 -0.622,-2.021 -1.55,-3.161 -2.828,-3.48 l -0.256,-0.065 c -1.265,-0.319 -3.165,-0.799 -6.912,-1.241 0.045,0.089 0.093,0.183 0.142,0.284 0.308,0.623 0.511,1.035 0.632,1.588 0.104,0.47 0.145,0.953 0.121,1.426 -0.037,1.482 -0.259,2.907 -0.662,4.234 -0.256,0.845 -0.424,1.302 -0.977,2.74 -0.673,1.75 -0.881,2.587 -0.949,3.035 -1.185,4.625 0.668,5.728 2.186,6.162 0.502,0.168 1.025,0.168 1.58,0.168 h 0.457 l 0.156,1.717 -0.126,0.158 c -0.689,0.86 -1.996,0.675 -2.949,0.456 -2.26,-0.679 -3.691,-1.816 -4.376,-3.481 -0.66,-1.646 -0.696,-3.404 -0.121,-5.51 0.103,-0.46 0.279,-0.991 0.484,-1.606 0.204,-0.609 0.443,-1.325 0.692,-2.218 0.354,-1.006 0.604,-1.881 0.805,-2.584 0.128,-0.447 0.239,-0.839 0.345,-1.157 0.626,-2.146 0.722,-3.949 0.292,-5.638 l -0.144,-0.242 c -0.862,-1.435 -1.52,-2.607 -1.52,-3.541 v -0.629 l 19.375,4.479 c 0.199,-0.648 0.447,-1.393 0.447,-1.393 l 2.348,-7.46 c -3.57,1.672 -7.255,1.963 -10.727,0.84 -2.434,-0.848 -4.225,-2.243 -5.476,-4.266 -1.286,-2.078 -1.564,-4.36 -0.812,-6.824 0.446,-1.116 0.994,-1.92 1.799,-2.623 1.005,-0.782 2.039,-1 3.235,-0.632 0.566,0.283 1.278,0.715 1.768,1.575 0.327,0.655 0.372,1.448 0.11,2.352 -0.276,0.644 -0.698,1.457 -1.535,2.055 -0.695,0.463 -1.527,0.588 -2.394,0.338 -0.221,-0.088 -0.422,-0.206 -0.604,-0.355 0.122,0.483 0.317,1.03 0.643,1.574 1.386,2.424 3.827,3.222 4.651,3.326 l 0.114,0.028 c 1.19,0.446 2.433,0.566 3.857,0.355 1.715,-0.082 3.015,-0.847 3.713,-1.258 l 0.307,-0.167 c 0.202,-0.067 0.915,-0.513 1.735,-1.423 1.735,-1.736 2.463,-3.462 2.751,-4.573 l 0.041,-0.198 C -0.537,11.992 0.405,9.865 1.348,7.739 2.222,5.768 3.096,3.796 3.95,1.823 L 3.852,1.779 C 1.134,4.551 -2.13,7.38 -6.39,10.656 L -6.76,10.94 -9.459,7.89 -9.404,7.642 C -8.177,2.07 -9.491,-2.55 -13.423,-6.481 l -0.255,-0.255 1.052,-2.104 14.152,6.355 C 1.862,-3.479 1.979,-4.608 1.888,-5.907 1.724,-7.296 1.101,-8.27 0.034,-8.804 -0.001,-8.82 -0.051,-8.84 -0.11,-8.86 c 0.031,0.63 -0.074,1.248 -0.315,1.893 -0.213,0.639 -0.706,1.144 -1.507,1.545 -0.714,0.359 -1.471,0.358 -2.159,0.013 -0.961,-0.412 -1.263,-1.15 -1.458,-1.944 -0.105,-0.838 -0.011,-1.501 0.339,-2.313 0.607,-1.216 1.558,-1.998 2.666,-2.198 1.036,-0.206 2.099,-0.111 3.39,0.321 1.661,0.728 3.02,2.29 3.932,4.519 0.917,2.242 0.997,4.164 0.265,5.818 l 0.184,0.083 3.726,-8.179 c 0.049,-0.158 0.235,-0.455 0.925,-1.524 0.099,-0.153 0.197,-0.307 0.291,-0.452 l -15.015,-7.792 -0.517,-4.926 17.101,10.083 c 1.129,-2.259 1.457,-2.952 1.542,-3.15 l 0.036,-0.099 c 0.181,-0.453 0.373,-1.221 0.554,-1.942 0.111,-0.557 0.161,-1.065 0.15,-1.557 -2.69,1.184 -4.92,1.133 -6.794,-0.149 -0.678,-0.451 -1.066,-1.136 -1.189,-2.155 0,-0.85 0.274,-1.629 0.785,-2.244 0.803,-1.003 2.102,-1.668 3.779,-1.939 -0.298,-1.14 -0.051,-2.194 0.767,-3.283 0.489,-0.589 1.19,-1.048 2.208,-1.424 0.981,-0.217 1.819,-0.027 2.539,0.577 1.017,0.789 1.634,1.909 1.738,3.15 0.086,0.958 -0.039,1.96 -0.393,3.127 0.321,0.185 0.68,0.281 1.054,0.281 0.751,0 1.062,-0.208 1.252,-0.392 0.211,-0.265 0.488,-1.337 0.184,-3.676 -0.104,-0.761 -0.42,-3.076 -0.884,-3.448 -0.94,-0.769 -2.374,-1.801 -4.797,-3.453 -1.722,-1.197 -3.039,-2.164 -4.04,-2.898 L 9.417,-39.182 C 8.52,-39.881 8.015,-40.386 7.825,-40.575 l -0.146,-0.243 v -0.371 l 1.753,-2.379 15.638,12.045 c 0.898,-0.751 1.821,-1.586 3.045,-2.716 4.066,-3.88 8.265,-7.889 12.491,-11.839 l -2.134,-2.372 c 0.035,1.796 -0.47,3.199 -1.465,4.028 -1.073,0.977 -2.386,1.241 -3.678,0.766 -0.298,2.272 -1.161,4.072 -2.523,5.239 -1.255,1.027 -2.753,1.463 -4.339,1.269 -1.765,-0.221 -3.168,-0.893 -4.166,-1.992 -1.344,-1.439 -1.97,-3.082 -1.97,-5.17 0,-2.015 0.782,-3.796 2.222,-5.03 1.046,-0.813 1.976,-1.261 3.025,-1.45 1.197,-0.201 2.345,0.141 3.363,1.042 0.591,0.707 0.89,1.497 0.885,2.42 -0.127,0.889 -0.522,1.632 -1.172,2.171 -0.757,0.54 -1.392,0.843 -2.196,1.044 l -0.121,0.014 c -0.695,0 -1.701,-0.098 -2.382,-0.919 l -0.015,-0.014 c -0.318,0.966 -0.128,1.896 0.576,2.741 0.459,0.612 1.07,0.862 2.11,0.862 0.888,0 1.646,-0.308 2.279,-0.938 0.66,-0.578 1.213,-1.443 1.59,-2.475 0.36,-1.174 0.344,-1.981 -0.057,-2.702 l -0.202,-0.364 1.695,-1.387 0.314,0.245 c 2.052,1.596 2.79,1.324 3.244,0.874 0.347,-0.278 0.606,-0.818 0.79,-1.65 0.215,-0.964 -0.041,-1.356 -0.27,-1.586 -0.792,-0.88 -1.923,-1.935 -3.233,-3.156 l -0.322,-0.301 c -0.568,-0.569 -1.201,-1.128 -1.812,-1.67 -0.623,-0.551 -1.267,-1.12 -1.858,-1.711 l -0.146,-0.146 v -2.859 l 1.613,-1.319 13.192,14.54 2.795,-2.892 2.064,2.209 -17.948,15.779 c -0.614,0.652 -1.245,1.29 -1.872,1.924"
             style="fill:#ffffff;fill-opacity:1;fill-rule:nonzero;stroke:none"
             id="path151"
             inkscape:connector-curvature="0" />
        </g>
        <g
           id="g153"
           transform="translate(264.4258,245.4859)">
          <path
             d="m 0,0 c -0.734,0 -1.338,-0.262 -1.898,-0.822 -0.54,-0.538 -0.824,-1.229 -0.824,-1.995 0,-0.649 0.071,-1.399 0.555,-1.997 0.388,-0.645 1.037,-1.015 1.781,-1.015 1.241,0 2.721,0.522 2.721,3.012 0,0.553 -0.07,1.207 -0.592,1.857 C 1.386,-0.513 0.864,0 0,0"
             style="fill:#ffffff;fill-opacity:1;fill-rule:nonzero;stroke:none"
             id="path155"
             inkscape:connector-curvature="0" />
        </g>
        <g
           id="g157"
           transform="translate(252.582,158.0631)">
          <path
             d="m 0,0 c -2.692,-1.549 -5.107,-3.654 -7.068,-6.167 -1.019,2.454 -1.568,5.188 -1.636,8.146 z m -1.522,-36.471 c -1.459,-0.95 -2.608,-1.929 -3.429,-2.925 -0.028,0.089 -0.056,0.184 -0.082,0.285 -0.153,0.578 -0.25,1.069 -0.301,1.5 -0.09,0.767 -0.168,1.565 -0.233,2.381 0.903,-0.274 2.567,-0.785 4.045,-1.241 m -24.562,-15.077 7.815,-4.263 c -2.963,-0.72 -5.738,-2.045 -8.427,-4.023 -0.308,2.725 -0.106,5.449 0.612,8.286 M -4.376,92.019 8.629,91.848 C 6.646,89.761 5.049,87.4 3.688,84.546 l -0.155,0.275 c -1.434,2.555 -2.382,4.243 -3.082,5.118 l -0.308,0.385 -0.389,-0.303 c -0.962,-0.748 -1.905,-1.824 -2.788,-2.882 -0.196,-0.245 -0.49,-0.638 -0.897,-1.178 -0.176,-0.236 -0.374,-0.5 -0.594,-0.792 z m 0.707,-14.964 0.069,0.418 c 0.412,2.471 1.2,4.852 2.293,6.942 1.35,-2.595 2.709,-5.074 4.248,-7.157 l 0.298,-0.403 3.205,2.374 0.008,0.241 c 0.091,2.771 0.811,5.186 2.131,7.168 1.478,2.122 3.571,3.487 6.056,3.947 l 0.369,0.067 0.382,3.811 -19.744,0.388 0.098,3.969 H -7.093 L -7.586,76.321 -8.742,50.087 c -0.189,-1.614 -0.843,-9.533 -0.869,-9.856 l -1.157,-10.504 -3.277,-20.925 -4.919,-21.799 -0.81,-2.795 -1.115,-3.907 -0.576,-1.96 -2.293,-6.359 3.642,-1.345 c -0.726,-0.272 -1.329,-0.5 -1.822,-0.687 l -0.837,-0.32 c -1.73,-0.923 -2.637,-1.783 -3.03,-2.863 -0.431,-1.08 -0.433,-2.271 -0.006,-3.448 0.3,-0.825 0.766,-1.562 1.388,-2.201 -1.561,-0.485 -2.719,-1.137 -3.611,-2.031 -0.849,-0.968 -1.628,-2.419 -2.286,-4.246 l -9.634,-17.923 -1.234,-1.852 -2.309,-3.413 -2.43,-3.645 2.37,-1.628 2.891,4.336 c 4.948,-3.575 9.985,-7.324 13.635,-10.67 l 0.248,-0.228 4.761,2.255 -16.622,11.408 c 0.284,0.41 0.558,0.83 0.831,1.249 0.357,0.547 0.713,1.094 1.128,1.672 1.256,2.32 2.513,4.687 3.769,7.055 1.171,2.205 2.342,4.411 3.512,6.578 l 0.018,-0.012 c -1.175,-5.102 -1.671,-10.292 -1.477,-15.429 l 0.023,-0.603 5.027,1.143 0.11,0.159 c 1.469,2.11 3.537,3.822 5.981,4.949 2.35,1.086 5.032,1.506 7.752,1.213 l 0.323,-0.034 1.1,1.884 -17.313,9.382 1.673,3.264 c 0.136,0.14 0.272,0.298 0.407,0.455 0.135,0.158 0.271,0.318 0.387,0.435 0.64,0.575 1.278,1.019 1.865,1.383 0.427,-3.102 1.645,-4.979 3.688,-5.721 0.788,-0.338 1.522,-0.272 2.377,0.219 0.732,0.417 1.214,0.966 1.567,1.787 0.481,1.158 0.375,2.553 -0.325,4.253 1.072,0.293 1.878,1.084 2.351,2.309 0.369,0.864 0.208,1.812 0.025,2.54 -0.229,0.917 -0.804,1.535 -1.749,1.888 -1.055,0.424 -2.26,0.354 -3.5,-0.209 -0.87,-0.436 -1.629,-1.036 -2.307,-1.829 -0.328,0.222 -0.578,0.489 -0.82,0.79 -0.287,0.431 -0.372,0.85 -0.23,1.207 0.053,0.157 0.419,0.771 2.935,2.028 2.234,1.117 3.138,1.229 3.448,1.144 0.436,-0.181 0.966,-0.39 1.593,-0.636 1.039,-0.408 2.342,-0.92 3.881,-1.57 0.693,-0.347 1.378,-0.615 2.045,-0.866 0.026,-1.158 0.179,-2.525 0.483,-4.345 0.1,-0.904 0.487,-2.641 1.071,-5.268 l 0.136,-0.61 4.063,1.912 0.058,0.231 c 0.234,0.937 0.775,1.834 1.607,2.665 0.494,0.495 1.272,1.052 2.353,1.685 1.194,0.797 2.057,1.373 2.669,1.984 l 0.582,0.583 -6.555,2.075 -18.086,6.782 1.19,3.401 c 0.212,0.408 0.488,1.308 0.958,3.304 5.796,-1.71 11.258,-3.667 16.241,-5.818 l 0.3,-0.13 3.782,3.529 -19.513,5.617 c 0.07,0.273 0.146,0.546 0.222,0.82 0.124,0.444 0.247,0.887 0.344,1.33 l 3.854,17.102 0.101,-0.02 c 0.219,-5.278 1.14,-10.285 2.81,-15.295 l 0.187,-0.558 4.562,2.396 0.064,0.19 c 0.871,2.615 2.305,4.721 4.38,6.436 2.052,1.677 4.511,2.81 7.112,3.274 l 0.325,0.058 0.478,2.067 -19.317,4.347 0.76,3.296 c 0.014,0.071 0.289,1.52 0.431,2.612 l 10.538,-1.601 3.537,3.185 -0.51,0.362 c -2.582,1.832 -4.507,4.526 -5.617,7.842 0.838,-0.406 1.829,-0.686 2.923,-0.823 3.272,-0.578 6.874,-0.511 10.705,0.193 l 0.36,0.067 0.334,2.67 -0.735,-0.22 C 8.792,22.33 7.133,22.135 5.839,22.319 1.098,23.094 -2.184,24.698 -4.486,27.368 l -0.4,0.464 -2.843,-3.672 0.061,-0.237 c 0.731,-2.829 2.207,-6.305 4.392,-10.341 l -7.006,1.035 2.438,15.673 c 0.045,0.635 0.113,1.291 0.18,1.959 0.048,0.468 0.096,0.94 0.138,1.415 2.187,-1.483 4.025,-2.298 5.613,-2.484 1.37,-0.116 3.234,0.159 5.403,0.792 2.725,0.832 4.426,0.8 5.02,0.755 0.655,-0.067 1.126,-1.238 1.29,-3.215 l 0.058,-0.713 2.263,1.045 -0.077,0.386 c -0.429,2.149 -1.072,3.513 -2.09,4.428 -0.958,0.854 -2.473,1.368 -4.636,1.574 -1.219,0.104 -2.969,-0.089 -5.383,-0.593 -2.586,-0.674 -4.395,-0.62 -5.028,-0.568 -0.607,0.076 -1.322,0.45 -2.236,1.169 l 0.545,4.456 0.004,0.158 c 0,0.326 0.023,0.651 0.047,0.977 0.011,0.168 0.024,0.335 0.033,0.503 l 17.095,-1.615 3.105,3.24 -20.01,1.882 c 0.097,0.634 0.209,1.423 0.212,1.457 0.194,3.623 0.362,7.27 0.531,10.917 0.163,3.48 0.324,6.96 0.506,10.42 l 3.242,-0.12 C -3.42,67.38 -4.122,66.158 -4.205,64.74 c -0.094,-1.498 0.527,-2.654 1.804,-3.38 -1.488,-1.723 -2.289,-3.508 -2.384,-5.31 -0.101,-1.509 0.447,-2.894 1.707,-4.265 1.278,-1.173 2.634,-1.766 4.271,-1.869 1.923,-0.106 3.687,0.488 5.277,1.761 1.512,1.296 2.296,2.897 2.394,4.878 0.096,1.14 -0.145,2.213 -0.752,3.303 -0.813,1.279 -1.745,1.874 -2.932,1.874 -0.899,0 -1.601,-0.265 -2.382,-0.919 -0.702,-0.702 -1.016,-1.407 -1.016,-2.285 0,-0.909 0.236,-1.761 0.672,-2.415 0.61,-0.856 1.344,-1.272 2.242,-1.272 0.02,0 0.047,0 0.08,10e-4 -0.531,-1.019 -1.324,-1.478 -2.398,-1.416 -0.747,0 -1.393,0.355 -1.941,1.085 -0.523,0.597 -0.746,1.278 -0.746,2.278 0,0.805 0.318,1.776 0.888,2.726 0.643,1.01 1.307,1.553 2.09,1.71 l 0.374,0.074 0.155,2.177 -0.436,0.083 c -2.588,0.493 -2.588,1.497 -2.593,1.755 0.09,0.631 0.368,1.211 0.871,1.799 0.435,0.58 0.873,0.863 1.3,0.865 1.248,-0.097 2.894,-0.29 4.905,-0.578 1.251,-0.147 2.452,-0.352 3.725,-0.57 l 1.405,-0.237 2.173,1.83 0.148,2.075 -19.624,0.87 0.164,5.687 z"
             style="fill:#ffffff;fill-opacity:1;fill-rule:nonzero;stroke:none"
             id="path159"
             inkscape:connector-curvature="0" />
        </g>
        <g
           id="g161"
           transform="translate(121.3149,53.7193)">
          <path
             d="m 0,0 c -2.337,1.168 -4.53,1.687 -6.688,1.595 -2.961,0 -4.997,-1.068 -6.026,-3.132 -0.594,-0.948 -0.667,-1.892 -0.237,-2.856 0.356,-0.95 0.968,-1.599 1.994,-2.112 1.651,-0.769 2.908,-0.442 3.75,1.002 0.499,1 0.394,2.025 -0.29,2.939 0.886,0.564 1.929,0.815 3.127,0.745 1.268,0 2.451,-0.319 3.751,-1.017 1.091,-0.501 1.769,-1.108 2.015,-1.806 0.193,-0.548 0.118,-1.175 -0.239,-1.889 -0.203,-0.477 -0.798,-0.742 -1.353,-0.89 -0.404,0.537 -0.807,0.869 -1.274,1.057 -0.77,0.329 -1.526,0.433 -2.384,0.325 l -0.112,-0.027 c -0.767,-0.288 -1.548,-0.642 -1.914,-1.5 -0.453,-0.908 -0.381,-1.852 0.234,-2.833 0.504,-0.706 1.145,-1.475 2.044,-1.81 0.611,-0.262 1.231,-0.488 1.992,-0.384 0.59,-0.932 0.74,-1.663 0.446,-2.256 -0.188,-0.466 -0.643,-1.06 -2.485,-0.846 -0.891,0.081 -1.971,0.4 -3.106,0.915 -2.549,1.275 -4.346,2.824 -5.496,4.74 -0.722,1.174 -1.283,3.092 -1.669,5.703 -0.532,3.609 -1.145,5.873 -1.566,7.136 l -0.108,0.319 -2.424,0.153 0.012,-0.544 c 0.103,-4.589 0.84,-8.563 2.252,-12.136 1.686,-4.662 4.173,-7.842 7.393,-9.453 1.108,-0.554 2.216,-0.828 3.342,-0.828 0.559,0 1.123,0.067 1.693,0.202 2.04,0.322 3.506,1.322 4.237,2.887 0.9,1.899 0.909,3.736 0.026,5.601 1.079,0.615 1.906,1.547 2.583,2.901 0.739,1.585 0.741,3.173 -0.028,4.916 C 2.604,-1.739 1.43,-0.668 0,0"
             style="fill:#ffffff;fill-opacity:1;fill-rule:nonzero;stroke:none"
             id="path163"
             inkscape:connector-curvature="0" />
        </g>
        <g
           id="g165"
           transform="translate(178.0742,43.4742)">
          <path
             d="m 0,0 c -2.356,0.951 -4.879,1.497 -7.657,1.659 l 3.886,5.552 -0.565,0.242 C -4.965,7.724 -5.99,8.075 -7.743,8.624 l -2.18,0.786 5.674,2.064 z m -0.417,-10.333 c -0.737,-0.367 -0.923,-0.303 -0.943,-0.269 -0.201,0.535 0.331,1.103 1.609,1.706 0.449,0.249 0.871,0.416 1.238,0.492 -0.399,-0.821 -1.027,-1.455 -1.904,-1.929 m -30.8,10.117 c -0.782,1.097 -1.802,1.953 -2.994,2.513 0.72,0.972 1.736,1.519 2.995,1.595 1.112,0.16 2.238,-0.045 3.289,-0.588 z m 50.87,28.898 c 0.929,0.828 1.862,1.654 2.799,2.474 0.745,0.653 1.492,1.302 2.251,1.941 l 0.143,0.121 c 0.405,0.341 0.811,0.684 1.24,0.994 l 0.476,0.344 -0.415,0.415 c -0.479,0.479 -1.077,1.077 -1.585,1.484 l -0.334,0.268 -0.316,-0.288 C 20.616,33.427 17.32,30.42 14.021,27.417 L 12.854,26.354 C 11.564,25.181 10.275,24.007 8.982,22.84 7.964,21.922 6.85,21.026 5.669,20.18 5.082,19.76 4.483,19.355 3.877,18.966 L 3.644,18.815 C 3.454,18.693 3.265,18.571 3.073,18.453 3.044,18.435 2.993,18.399 2.931,18.355 2.861,18.308 2.703,18.196 2.6,18.137 l -3.479,-1.933 -2.475,-1.401 c -2.633,-0.973 -5.292,-1.943 -7.976,-2.907 -2.699,-0.971 -5.382,-1.921 -7.951,-2.83 -0.034,-0.004 -0.188,-0.029 -0.18,-0.03 -0.863,-0.095 -1.757,-0.193 -2.661,-0.394 l -0.44,-0.098 0.628,-5.427 c -0.991,1.007 -2.298,1.937 -3.905,2.776 -2.282,1.19 -4.421,1.707 -6.187,1.501 -2.345,-0.307 -4.445,-1.222 -6.244,-2.72 -1.889,-1.574 -3.23,-3.376 -4.103,-5.507 l -0.261,-0.642 5.204,-0.354 1.037,1.319 c 2.167,-0.468 2.574,-1.424 2.676,-2.154 v -0.287 l -2.668,-2.882 3.153,-2.234 0.296,0.344 c 3.411,3.962 6.115,6.956 8.043,8.908 1.994,-0.884 2.998,-1.886 3.157,-3.143 0.333,-2.498 0.449,-5.042 0.537,-7.548 -0.145,0.11 -0.299,0.22 -0.466,0.319 -1.238,0.722 -2.163,1.015 -3.01,0.946 -0.673,0.168 -1.876,0.026 -4.294,-0.5 -0.471,-0.094 -1.223,-0.335 -2.775,-0.889 -1.201,-0.43 -2.196,-0.74 -3.046,-0.952 -2.116,-0.543 -3.713,-0.504 -4.743,0.115 -0.705,0.424 -1.165,1.118 -1.401,2.089 -0.086,0.524 -0.086,1.053 0,1.576 l 0.088,0.531 -1.739,0.158 -0.127,-0.064 c -0.952,-0.475 -0.838,-1.765 -0.65,-2.978 0.525,-2.203 1.693,-3.758 3.365,-4.49 0.905,-0.421 1.917,-0.634 3.037,-0.634 0.795,0 1.645,0.107 2.548,0.323 0.459,0.153 1.029,0.306 1.706,0.488 0.599,0.161 1.279,0.344 2.044,0.57 l 0.894,0.263 c 1.203,0.357 2.153,0.638 2.867,0.797 2.109,0.59 4.125,0.603 5.993,0.034 1.403,-1.196 2.423,-1.887 3.433,-1.887 h 0.566 l -2.436,19.767 c 0.182,0.067 0.367,0.139 0.553,0.21 0.307,0.118 0.613,0.236 0.896,0.33 0.288,0.097 0.599,0.193 0.911,0.288 0.149,0.045 0.298,0.091 0.444,0.137 0.072,-0.204 0.163,-0.421 0.292,-0.614 l 0.169,-0.253 0.303,0.033 c 2.343,0.26 4.564,0.195 6.609,-0.192 -1.642,-1.808 -3.274,-3.949 -4.862,-6.377 l -0.283,-0.433 3.36,-2.04 0.231,0.093 c 2.2,0.879 4.46,1.227 6.726,1.028 1.242,-0.107 2.7,-0.349 4.098,-1.319 0.532,-0.369 1.009,-0.816 1.421,-1.329 0.085,-0.226 0.137,-0.46 0.154,-0.7 0.028,-0.409 -0.051,-0.765 -0.153,-1.042 -1.097,0.031 -2.227,-0.215 -3.401,-0.759 -1.015,-0.564 -1.777,-1.069 -2.16,-1.651 -0.873,-0.982 -1.053,-1.95 -0.577,-3.018 0.371,-0.989 1.34,-1.58 2.593,-1.58 1.016,0 1.89,0.109 2.807,0.621 1.426,0.624 2.474,1.753 3.001,3.216 l 5.192,-2.69 3.092,2.956 -0.806,0.253 c -2.21,0.695 -4.058,1.352 -5.542,1.88 -0.603,0.214 -1.15,0.408 -1.643,0.577 0.062,0.271 0.11,0.543 0.149,0.817 0.052,0.378 0.083,0.766 0.091,1.158 0.002,0.148 -0.006,0.322 -0.036,0.513 -0.022,0.143 -0.054,0.271 -0.097,0.415 l -5.774,15.921 c 0.532,0.245 1.072,0.5 1.62,0.769 0.449,0.22 0.89,0.441 1.32,0.663 C 5.151,7.184 7.486,2.467 8.907,-1.296 l 0.119,-0.315 5.281,-0.125 -0.442,0.769 c 0,0 -7.921,13.822 -9.556,16.678 0.661,0.374 1.956,1.274 4.693,3.399 l 0.153,0.119 c 1.16,0.894 2.231,1.912 3.265,2.895 l 0.453,0.431 c 0.969,0.919 1.962,1.809 2.955,2.7 l 0.774,0.693 0.193,0.173 0.869,0.778 c 0.663,0.595 1.324,1.191 1.989,1.783"
             style="fill:#ffffff;fill-opacity:1;fill-rule:nonzero;stroke:none"
             id="path167"
             inkscape:connector-curvature="0" />
        </g>
        <g
           id="g169"
           transform="translate(212.1982,94.1207)">
          <path
             d="m 0,0 c -0.173,-0.058 -0.493,-0.121 -0.646,-0.184 -2.29,-0.803 -3.875,-0.513 -4.207,-0.295 -0.427,0.283 -0.636,0.721 -0.642,1.231 -0.014,1.312 0.734,2.682 1.751,3.486 1.114,0.882 2.514,1.208 3.821,1.687 0.07,0.025 0.824,0.301 0.815,0.331 0,0 -0.862,2.893 -0.862,2.895 C 0.047,9.081 -2.266,8.308 -2.437,8.246 -4.189,7.616 -5.972,6.927 -7.328,5.603 -8.346,4.608 -9.021,3.269 -9.211,1.859 c -0.24,-1.767 -0.182,-4.41 1.496,-5.529 0.71,-0.473 1.736,-0.845 3.495,-0.493 l 1.667,0.35 0.31,-0.338 z"
             style="fill:#ffffff;fill-opacity:1;fill-rule:nonzero;stroke:none"
             id="path171"
             inkscape:connector-curvature="0" />
        </g>
        <g
           id="g173"
           transform="translate(233.2568,143.1295)">
          <path
             d="m 0,0 c -0.152,-0.102 -0.445,-0.246 -0.576,-0.346 -2.004,-1.369 -3.61,-1.499 -3.987,-1.373 -0.487,0.161 -0.802,0.532 -0.939,1.022 -0.354,1.264 0.015,2.781 0.788,3.821 0.849,1.141 2.115,1.816 3.255,2.618 0.061,0.043 0.718,0.503 0.701,0.53 0,0 -1.581,2.573 -1.582,2.575 0.034,-0.065 -1.999,-1.41 -2.148,-1.513 -1.53,-1.063 -3.074,-2.19 -4.04,-3.82 -0.727,-1.224 -1.031,-2.693 -0.851,-4.104 0.227,-1.769 0.966,-4.306 2.877,-4.952 0.808,-0.273 1.896,-0.368 3.503,0.427 l 1.52,0.77 0.386,-0.247 z"
             style="fill:#ffffff;fill-opacity:1;fill-rule:nonzero;stroke:none"
             id="path175"
             inkscape:connector-curvature="0" />
        </g>
        <g
           id="g177"
           transform="translate(181.8613,62.148)">
          <path
             d="M 0,0 C -0.18,0.034 -0.49,0.135 -0.654,0.155 -3.045,0.57 -4.286,1.597 -4.47,1.951 -4.705,2.405 -4.674,2.89 -4.43,3.338 -3.802,4.49 -2.48,5.32 -1.2,5.526 0.202,5.753 1.583,5.354 2.958,5.134 3.031,5.122 3.823,4.994 3.83,5.025 3.83,5.026 4.49,7.972 4.491,7.974 4.472,7.904 2.075,8.357 1.896,8.387 0.059,8.692 -1.834,8.96 -3.664,8.466 -5.037,8.095 -6.279,7.255 -7.134,6.117 -8.205,4.691 -9.444,2.356 -8.524,0.562 c 0.388,-0.76 1.102,-1.585 2.808,-2.137 l 1.627,-0.508 0.105,-0.446 z"
             style="fill:#ffffff;fill-opacity:1;fill-rule:nonzero;stroke:none"
             id="path179"
             inkscape:connector-curvature="0" />
        </g>
        <g
           id="g181"
           transform="translate(209.7803,71.2809)">
          <path
             d="M 0,0 C -0.094,0.705 -0.286,1.272 -0.587,1.734 -0.93,2.262 -1.479,2.695 -2.172,2.988 -2.529,3.142 -2.943,3.225 -3.475,3.25 L -3.503,3.252 C -4.266,3.29 -5.055,3.327 -5.801,3.041 -6.302,2.847 -6.784,2.537 -7.317,2.064 -7.728,1.702 -8.07,1.246 -8.401,0.806 L -8.459,0.729 C -8.624,0.509 -8.785,0.281 -8.937,0.054 -8.957,0.022 -9.168,-0.31 -9.258,-0.45 c -0.346,0.097 -1.806,0.484 -2.686,0.338 -0.618,-0.102 -1.272,-0.266 -1.965,-0.661 l -2.072,-1.861 c -0.335,-0.412 -0.64,-0.847 -0.904,-1.306 -0.511,-0.884 -0.877,-1.803 -1.09,-2.732 -0.026,-0.117 -0.048,-0.235 -0.068,-0.354 -0.134,-0.828 -0.049,-1.68 0.243,-2.465 0.071,-0.189 0.167,-0.37 0.286,-0.54 0.15,-0.213 0.333,-0.416 0.544,-0.606 0.522,-0.467 1.14,-0.79 1.789,-0.936 0.66,-0.147 1.288,-0.062 2.043,0.276 0.041,0.019 0.397,0.183 0.397,0.183 l 0.074,0.034 -0.574,2.421 -0.121,-0.084 c -0.623,-0.437 -0.945,-0.521 -1.101,-0.516 -0.226,0.01 -0.405,0.089 -0.546,0.24 -0.221,0.243 -0.309,0.676 -0.262,1.29 0.049,0.633 0.246,1.325 0.584,2.056 0.338,0.731 0.842,1.405 1.496,2.007 0.649,0.594 1.659,1.074 2.548,0.628 0.792,-0.397 1.552,-1.508 1.347,-2.347 -0.192,-0.779 -1.404,-2.259 -1.417,-2.273 l -0.049,-0.06 1.719,-2.406 2.139,2.791 c 0.118,-0.015 0.383,-0.046 0.421,-0.053 0.182,-0.031 0.394,-0.07 0.591,-0.135 0.319,-0.106 0.726,-0.307 0.86,-0.667 0.34,-0.916 -0.016,-1.818 -0.373,-2.412 -0.785,-1.306 -2.329,-2.385 -3.67,-2.564 -1.21,-0.161 -2.516,-0.024 -3.517,0.11 -3.22,0.441 -6.112,2.105 -8.57,3.63 l -0.052,0.032 -3.129,-1.871 0.139,-0.087 c 1.696,-1.053 3.617,-2.026 5.708,-2.889 0.637,-0.264 1.274,-0.5 1.893,-0.703 1.658,-0.545 3.269,-0.888 4.789,-1.018 0.468,-0.041 0.926,-0.061 1.374,-0.061 1.184,0 2.288,0.142 3.295,0.425 0.562,0.158 1.129,0.428 1.684,0.802 2.145,1.444 4.201,4.084 3.54,7.157 -0.156,0.731 -0.505,1.397 -1.007,1.924 -0.414,0.437 -0.923,0.776 -1.51,1.006 -0.362,0.143 -0.787,0.289 -1.201,0.305 h -0.005 c -0.07,0 -0.76,-0.005 -1.103,-0.09 -0.02,0.26 -0.067,0.916 -0.07,1.287 -0.002,0.441 0.074,0.908 0.234,1.427 l 0.032,0.105 c 0.15,0.488 0.305,0.994 0.569,1.409 0.261,0.412 0.778,0.737 1.316,0.826 0.434,0.071 0.833,-0.013 1.121,-0.243 0.466,-0.371 0.864,-1.055 0.638,-1.683 -0.092,-0.253 -0.275,-0.5 -0.45,-0.739 -0.061,-0.081 -0.12,-0.161 -0.173,-0.238 -0.14,-0.2 -0.28,-0.4 -0.421,-0.598 L -4.009,-3.02 -3.93,-3.078 c 0.001,-0.001 0.005,-0.004 2.093,-1.486 l 0.084,-0.06 0.058,0.087 c 0,0 0.683,1.041 0.727,1.109 l 0.153,0.236 c 0.217,0.334 0.442,0.678 0.636,1.033 C 0.166,-1.528 0.099,-0.747 0,0"
             style="fill:#ffffff;fill-opacity:1;fill-rule:nonzero;stroke:none"
             id="path183"
             inkscape:connector-curvature="0" />
        </g>
        <g
           id="g185"
           transform="translate(123.3169,226.9376)">
          <path
             d="m 0,0 c 0.137,0.856 -0.033,1.57 -0.51,2.141 -0.477,0.571 -1.214,0.857 -2.212,0.857 0.862,1.445 2.348,2.169 4.458,2.169 1.067,0 2.076,-0.41 3.029,-1.228 z m -6.058,-1.227 c -0.453,-1.256 -0.68,-2.189 -0.68,-2.797 0,-0.914 0.283,-1.713 0.85,-2.398 0.568,-0.685 1.373,-1.237 2.416,-1.656 1.09,-0.323 2.095,-0.527 3.014,-0.613 0.918,-0.086 1.967,-0.1 3.146,-0.043 h 3.404 c 1.066,-0.057 1.928,-0.41 2.586,-1.056 0.976,-1.009 1.543,-1.57 1.702,-1.685 V 5.566 h 2.858 0.341 20.963 L 32.569,7.165 H 11.298 L 11.34,7.13 C 11.26,7.125 11.167,7.108 11.094,7.108 10.346,7.108 9.857,7.374 9.632,7.907 9.585,8.04 9.534,8.245 9.478,8.521 9.421,8.796 9.36,9.144 9.292,9.562 l -0.851,0.6 C 8.508,8.753 8.594,7.345 8.696,5.937 8.798,4.529 8.882,3.13 8.951,1.741 L 8.882,1.713 C 6.454,5.157 3.857,6.879 1.089,6.879 0.363,6.879 -0.408,6.765 -1.225,6.537 -2.042,6.308 -2.871,5.975 -3.709,5.538 -4.571,5.042 -5.253,4.51 -5.751,3.939 -6.251,3.368 -6.5,2.797 -6.5,2.227 c 0,-0.324 0.154,-0.619 0.459,-0.885 0.307,-0.267 0.652,-0.4 1.039,-0.4 0.34,0 0.794,0.105 1.361,0.314 0.635,0.209 1.088,0.314 1.361,0.314 0.794,0 1.191,-0.552 1.191,-1.655 0,-0.609 -0.669,-1.437 -2.007,-2.483 L -0.34,-3.396 6.331,2.255 C 6.58,2.103 6.829,1.913 7.079,1.685 7.329,1.456 7.566,1.18 7.794,0.856 8.315,0.152 8.576,-0.438 8.576,-0.913 L 8.339,-8.62 c -1.068,1.294 -2.825,2.027 -5.276,2.198 -1.021,0.133 -1.935,0.218 -2.739,0.257 -0.805,0.038 -1.799,0.104 -2.978,0.2 -1.974,0.342 -2.961,1.379 -2.961,3.111 0,0.475 0.091,0.818 0.272,1.027 z"
             style="fill:#000000;fill-opacity:1;fill-rule:nonzero;stroke:none"
             id="path187"
             inkscape:connector-curvature="0" />
        </g>
        <g
           id="g189"
           transform="translate(147.0713,214.3214)">
          <path
             d="m 0,0 c -0.591,-0.229 -1.158,-0.314 -1.702,-0.257 -0.635,0.095 -0.953,0.39 -0.953,0.885 0.046,0.627 0.703,0.952 1.973,0.97 C -0.318,1.542 0.005,1.46 0.288,1.355 0.572,1.251 0.827,1.094 1.055,0.885 0.873,0.581 0.521,0.285 0,0 m 7.282,6.08 c 0.658,0.666 1.147,1.403 1.464,2.212 0.317,0.809 0.477,1.698 0.477,2.669 0,0.951 -0.375,2.064 -1.123,3.34 C 7.623,14.966 7.146,15.476 6.67,15.828 6.193,16.18 5.728,16.375 5.274,16.413 4.979,16.013 4.689,15.623 4.406,15.243 4.122,14.862 3.788,14.49 3.403,14.129 2.427,13.292 1.508,12.883 0.646,12.902 c 0.567,0.647 0.851,1.208 0.851,1.684 0,0.552 -0.244,1.013 -0.731,1.384 -0.489,0.371 -1.061,0.557 -1.719,0.557 -2.089,0 -3.131,-0.847 -3.131,-2.541 0,-1.008 0.464,-1.817 1.396,-2.425 0.838,-0.61 1.848,-0.914 3.029,-0.914 2.381,0 4.434,0.875 6.158,2.626 0.591,0 0.886,-0.79 0.886,-2.369 C 7.385,9.705 6.863,8.687 5.819,7.85 4.798,7.012 3.584,6.594 2.178,6.594 c -1.384,0 -2.69,0.281 -3.914,0.842 -1.225,0.561 -2.337,1.356 -3.335,2.383 -0.68,0.799 -1.356,1.756 -2.026,2.869 -0.669,1.113 -1.23,2.297 -1.683,3.554 l -1.158,0.314 c 0.749,-1.904 1.441,-3.535 2.077,-4.896 0.634,-1.361 1.213,-2.402 1.734,-3.125 2.156,-3.064 4.8,-4.596 7.93,-4.596 0.014,0 0.029,0.002 0.044,0.002 C 1.859,3.813 1.881,3.676 1.889,3.554 1.922,2.973 1.86,2.54 1.701,2.255 0.567,2.826 -0.363,3.111 -1.09,3.111 -1.543,3.111 -1.98,3.049 -2.4,2.925 -2.82,2.802 -3.188,2.626 -3.505,2.397 -3.823,2.169 -4.079,1.898 -4.271,1.584 -4.465,1.27 -4.561,0.923 -4.561,0.542 c 0,-0.742 0.363,-1.341 1.089,-1.798 0.748,-0.437 1.611,-0.657 2.586,-0.657 1.589,0.096 2.882,0.733 3.88,1.913 0.386,-0.19 0.8,-0.433 1.242,-0.728 0.443,-0.295 0.885,-0.618 1.327,-0.971 0.443,-0.352 0.868,-0.722 1.277,-1.113 0.408,-0.39 0.782,-0.775 1.123,-1.156 v 1.256 C 7.804,-2.483 7.64,-2.259 7.469,-2.041 7.299,-1.822 7.021,-1.522 6.636,-1.142 6.182,-0.704 5.687,-0.262 5.155,0.186 4.621,0.633 4.106,1.037 3.607,1.398 3.652,1.855 3.658,2.388 3.623,2.997 3.602,3.391 3.518,3.742 3.405,4.073 4.935,4.34 6.227,5.009 7.282,6.08"
             style="fill:#000000;fill-opacity:1;fill-rule:nonzero;stroke:none"
             id="path191"
             inkscape:connector-curvature="0" />
        </g>
        <g
           id="g193"
           transform="translate(162.9297,220.7154)">
          <path
             d="m 0,0 h 0.646 l 1.499,11.303 c 0.044,0.4 0.068,0.714 0.068,0.942 0,0.685 -0.183,1.204 -0.545,1.556 -0.363,0.351 -0.807,0.528 -1.327,0.528 -0.523,0 -0.97,-0.177 -1.344,-0.528 -0.376,-0.352 -0.562,-0.824 -0.562,-1.413 0,-0.228 0.034,-0.59 0.102,-1.085 z"
             style="fill:#000000;fill-opacity:1;fill-rule:nonzero;stroke:none"
             id="path195"
             inkscape:connector-curvature="0" />
        </g>
        <g
           id="g197"
           transform="translate(161.9424,217.9469)">
          <path
             d="m 0,0 c -0.363,-0.305 -0.544,-0.657 -0.544,-1.057 0,-0.437 0.181,-0.808 0.544,-1.113 0.364,-0.304 0.795,-0.456 1.294,-0.456 0.499,0 0.931,0.152 1.293,0.456 0.363,0.305 0.545,0.676 0.545,1.113 0,0.4 -0.182,0.752 -0.545,1.057 C 2.225,0.304 1.793,0.457 1.294,0.457 0.795,0.457 0.364,0.304 0,0"
             style="fill:#000000;fill-opacity:1;fill-rule:nonzero;stroke:none"
             id="path199"
             inkscape:connector-curvature="0" />
        </g>
        <g
           id="g201"
           transform="translate(148.5527,188.5836)">
          <path
             d="m 0,0 h -0.068 c -0.386,0.589 -0.856,1.151 -1.412,1.684 -0.556,0.532 -1.198,1.056 -1.923,1.57 0.023,0.152 0.034,0.285 0.034,0.399 v 0.371 c 0,1.485 -0.602,2.873 -1.803,4.168 -0.749,0.875 -2.111,1.988 -4.085,3.339 H 0 Z m 24.604,11.531 v -12.73 h -0.068 c -1.633,2.322 -4.015,3.939 -7.146,4.852 0.795,0.723 1.577,1.413 2.348,2.07 0.771,0.656 1.542,1.289 2.314,1.898 -0.952,0.97 -1.838,1.789 -2.654,2.455 -0.817,0.666 -1.521,1.151 -2.11,1.455 z M 1.804,-5.252 v 16.783 h 1.122 c 0.545,0 1.072,-0.08 1.583,-0.242 0.512,-0.162 0.965,-0.381 1.361,-0.657 0.397,-0.276 0.709,-0.613 0.936,-1.013 0.226,-0.4 0.34,-0.847 0.34,-1.342 V -3.568 l 1.838,-1.599 v 16.698 h 2.832 c 0.908,-0.521 2.035,-0.95 3.396,-1.284 C 16.301,9.904 17.174,9.6 17.833,9.333 18.49,9.067 18.933,8.829 19.159,8.62 18.319,8.106 17.406,7.478 16.42,6.736 15.433,5.994 14.43,5.213 13.408,4.396 L 15.96,1.627 c 2.314,-0.096 4.197,-0.619 5.65,-1.57 0.884,-0.647 1.803,-1.665 2.756,-3.055 0.885,-1.313 1.588,-2.13 2.111,-2.454 v 16.983 h 3.096 L 27.599,13.13 H 10.686 9.937 8.984 C 8.417,13.625 8.02,14.443 7.793,15.585 l -0.68,0.485 c 0,-0.324 0.011,-0.718 0.033,-1.185 C 7.169,14.418 7.203,13.872 7.248,13.244 7.316,12.597 7.362,12.036 7.385,11.56 7.407,11.084 7.419,10.684 7.419,10.361 7.032,11.351 6.522,12.06 5.887,12.488 5.28,12.897 4.428,13.104 3.344,13.123 L 3.335,13.13 h -0.137 -2.177 -16.098 -0.748 -0.953 c -0.567,0.495 -0.964,1.313 -1.191,2.455 l -0.68,0.485 c 0,-0.324 0.011,-0.718 0.033,-1.185 0.023,-0.467 0.057,-1.013 0.102,-1.641 0.069,-0.647 0.114,-1.208 0.137,-1.684 0.022,-0.476 0.034,-0.876 0.034,-1.199 -0.386,0.99 -0.896,1.699 -1.532,2.127 -0.516,0.347 -1.213,0.546 -2.073,0.612 l -0.036,0.03 h -0.579 -2.178 -21.474 l 1.905,-1.599 h 18.786 V 0.571 l -2.485,1.884 c 0.273,0.856 0.409,1.684 0.409,2.482 0,1.124 -0.295,2.132 -0.885,3.027 -0.476,0.646 -1.049,1.18 -1.718,1.598 -0.67,0.418 -1.367,0.732 -2.093,0.942 -0.523,0.133 -1.033,0.2 -1.532,0.2 -1.044,0 -2.11,-0.314 -3.199,-0.942 -0.408,-0.267 -0.749,-0.605 -1.021,-1.013 -0.273,-0.41 -0.408,-0.843 -0.408,-1.299 0,-0.419 0.113,-0.809 0.34,-1.171 0.477,-0.571 1.134,-0.923 1.974,-1.055 0.885,-0.115 1.644,0.037 2.28,0.456 0.408,0.229 0.732,0.504 0.97,0.828 0.238,0.323 0.357,0.656 0.357,0.999 0,0.399 -0.204,0.827 -0.611,1.284 0.384,0.133 0.759,0.172 1.122,0.114 0.362,-0.056 0.76,-0.228 1.191,-0.513 0.249,-0.191 0.528,-0.476 0.833,-0.856 0.307,-0.382 0.54,-0.81 0.698,-1.286 0.069,-0.304 0.102,-0.589 0.102,-0.855 0,-0.762 -0.249,-1.532 -0.748,-2.312 -0.749,-1.104 -2.235,-1.656 -4.458,-1.656 -0.908,0 -1.793,0.214 -2.655,0.642 -0.862,0.428 -1.657,1.028 -2.382,1.799 -0.726,0.77 -1.362,1.688 -1.906,2.754 -0.544,1.065 -0.976,2.255 -1.293,3.568 l -1.157,0.4 c 0.181,-1.371 0.464,-2.655 0.85,-3.854 0.386,-1.199 0.886,-2.236 1.497,-3.111 0.522,-0.704 1.078,-1.352 1.669,-1.941 0.589,-0.59 1.207,-1.095 1.854,-1.513 0.647,-0.419 1.299,-0.742 1.957,-0.97 0.658,-0.229 1.305,-0.343 1.94,-0.343 1.157,0 2.172,0.19 3.045,0.571 0.874,0.381 1.56,0.914 2.059,1.598 2.247,-1.237 3.801,-3.244 4.663,-6.022 v 0.028 l 0.647,-0.342 v 16.84 h 0.782 c 0.545,0 1.072,-0.08 1.583,-0.242 0.511,-0.162 0.964,-0.381 1.361,-0.657 0.396,-0.276 0.709,-0.613 0.936,-1.013 0.227,-0.4 0.34,-0.847 0.34,-1.342 V -3.568 l 1.838,-1.599 v 16.698 h 2.892 l 0.069,-0.056 c 0.703,-0.8 1.293,-1.333 1.77,-1.599 0.318,-0.171 0.72,-0.347 1.208,-0.528 0.487,-0.181 1.072,-0.357 1.752,-0.528 1.294,-0.305 2.167,-0.638 2.621,-0.999 0.703,-0.591 1.055,-1.561 1.055,-2.911 -0.386,0.209 -0.884,0.314 -1.497,0.314 -1.158,0 -2.077,-0.229 -2.757,-0.686 -0.794,-0.533 -1.191,-1.246 -1.191,-2.141 0,-0.78 0.311,-1.422 0.936,-1.926 0.624,-0.505 1.39,-0.757 2.296,-0.757 0.499,0 1.044,0.105 1.635,0.315 0.589,0.208 1.168,0.617 1.735,1.227 2.519,-0.685 4.288,-2.646 5.309,-5.881 z"
             style="fill:#000000;fill-opacity:1;fill-rule:nonzero;stroke:none"
             id="path203"
             inkscape:connector-curvature="0" />
        </g>
        <g
           id="g205"
           transform="translate(165.7725,187.1275)">
          <path
             d="m 0,0 c -0.386,-0.324 -0.578,-0.713 -0.578,-1.17 0,-0.438 0.192,-0.818 0.578,-1.142 0.385,-0.323 0.839,-0.485 1.361,-0.485 0.545,0 1.009,0.162 1.396,0.485 0.385,0.324 0.578,0.704 0.578,1.142 0,0.457 -0.193,0.846 -0.578,1.17 C 2.37,0.324 1.906,0.485 1.361,0.485 0.839,0.485 0.385,0.324 0,0"
             style="fill:#000000;fill-opacity:1;fill-rule:nonzero;stroke:none"
             id="path207"
             inkscape:connector-curvature="0" />
        </g>
        <g
           id="g209"
           transform="translate(98.5259,166.2018)">
          <path
             d="m 0,0 c -1.225,-1.027 -2.507,-1.542 -3.846,-1.542 -0.59,0 -1.032,0.119 -1.326,0.357 -0.296,0.238 -0.443,0.633 -0.443,1.185 0,0.285 0.096,0.628 0.289,1.027 0.193,0.4 0.442,0.785 0.749,1.157 0.306,0.371 0.635,0.689 0.986,0.956 0.352,0.266 0.698,0.399 1.038,0.399 C -2.122,2.778 -1.611,2.017 -1.021,1.256 -0.636,0.704 -0.295,0.285 0,0 M 3.182,-0.356 C 3.557,0.071 4.01,0.49 4.544,0.898 5.077,1.308 5.616,1.665 6.16,1.97 6.705,2.273 7.124,2.436 7.419,2.455 7.691,2.474 7.992,2.459 8.321,2.412 8.649,2.364 8.956,2.283 9.24,2.169 9.523,2.055 9.761,1.907 9.954,1.727 10.147,1.546 10.255,1.351 10.277,1.142 10.323,0.666 9.959,0.104 9.188,-0.542 8.757,-0.104 8.271,0.095 7.726,0.058 7.113,0.019 6.602,-0.182 6.194,-0.542 5.786,-0.904 5.637,-1.389 5.751,-1.998 c 0.318,-0.933 0.988,-1.38 2.008,-1.342 0.635,0.038 1.294,0.305 1.974,0.799 0.771,-0.608 1.18,-1.16 1.226,-1.654 0.067,-0.477 -0.137,-0.891 -0.613,-1.242 C 9.87,-5.79 9.313,-5.994 8.678,-6.051 7.976,-6.09 7.271,-5.979 6.568,-5.723 5.865,-5.466 5.235,-5.114 4.679,-4.667 4.123,-4.22 3.641,-3.716 3.233,-3.154 2.824,-2.593 2.62,-2.018 2.62,-1.428 c 0,0.286 0.188,0.643 0.562,1.072 m 16.76,7.206 h -0.919 -0.782 c -0.568,0.495 -0.965,1.313 -1.192,2.455 l -0.68,0.485 c 0,-0.323 0.011,-0.718 0.034,-1.184 C 16.426,8.139 16.459,7.593 16.505,6.964 16.573,6.317 16.619,5.756 16.642,5.28 16.663,4.805 16.675,4.405 16.675,4.082 16.289,5.071 15.779,5.78 15.143,6.208 14.509,6.636 13.612,6.85 12.455,6.85 h -0.136 -2.042 -24.468 l 1.871,-1.598 h 8.067 C -4.64,5.042 -5.02,4.747 -5.394,4.367 -5.768,3.986 -6.098,3.567 -6.381,3.111 -6.666,2.654 -6.891,2.188 -7.062,1.712 -7.232,1.237 -7.316,0.799 -7.316,0.399 c 0,-1.179 0.362,-2.097 1.088,-2.754 0.726,-0.657 1.792,-0.985 3.199,-0.985 1.701,0.096 3.029,0.562 3.982,1.399 0.181,-0.324 0.311,-0.614 0.391,-0.871 0.08,-0.256 0.12,-0.49 0.12,-0.699 0,-0.399 -0.12,-0.775 -0.358,-1.128 C 0.868,-4.99 0.545,-5.295 0.136,-5.552 -0.272,-5.809 -0.743,-6.014 -1.275,-6.165 -1.81,-6.317 -2.371,-6.394 -2.96,-6.394 c -0.613,0 -1.227,0.105 -1.838,0.314 -0.613,0.21 -1.191,0.505 -1.736,0.885 -0.545,0.381 -1.044,0.842 -1.497,1.384 -0.455,0.542 -0.829,1.147 -1.123,1.813 -0.205,0.437 -0.443,1.08 -0.715,1.927 -0.273,0.846 -0.578,1.87 -0.919,3.068 l -1.123,0.485 c 0.363,-1.922 0.749,-3.525 1.157,-4.809 0.409,-1.284 0.827,-2.279 1.259,-2.983 1.52,-2.817 3.925,-4.292 7.215,-4.424 2.859,0.132 4.561,1.464 5.104,3.996 1.679,-2.113 3.688,-3.083 6.025,-2.911 1.247,0.075 2.194,0.375 2.841,0.899 0.646,0.522 0.924,1.193 0.834,2.012 -0.091,0.951 -0.727,1.922 -1.906,2.911 1.202,0.894 1.757,1.799 1.668,2.712 C 12.24,1.379 12.064,1.822 11.758,2.212 11.453,2.602 11.077,2.931 10.635,3.197 10.193,3.463 9.688,3.658 9.121,3.782 8.554,3.905 7.986,3.948 7.419,3.91 6.556,3.834 5.683,3.511 4.799,2.939 4.549,2.769 4.322,2.612 4.119,2.469 3.914,2.326 3.732,2.179 3.574,2.026 3.029,1.437 2.706,1.075 2.604,0.942 2.501,0.809 2.292,0.494 1.974,0 1.52,0.266 1.202,0.519 1.021,0.757 0.839,0.994 0.635,1.317 0.408,1.727 0.182,2.136 -0.006,2.588 -0.153,3.083 c -0.148,0.494 -0.221,0.913 -0.221,1.256 0,0.399 0.044,0.703 0.136,0.913 h 12.421 c 0.544,0 1.071,-0.081 1.583,-0.242 0.51,-0.162 0.964,-0.381 1.361,-0.657 0.396,-0.276 0.708,-0.614 0.935,-1.013 0.227,-0.401 0.341,-0.848 0.341,-1.342 V -9.848 l 1.838,-1.598 V 5.252 h 2.653 0.92 12.49 v -8.849 h -0.069 c -2.042,3.54 -4.401,5.309 -7.079,5.309 -1.247,0 -2.359,-0.361 -3.335,-1.084 -0.908,-0.704 -1.361,-1.599 -1.361,-2.683 0,-1.999 1.226,-2.997 3.675,-2.997 0.795,0 1.43,0.233 1.907,0.699 0.476,0.466 0.714,1.042 0.714,1.727 0,0.418 -0.421,1.094 -1.259,2.026 0.113,0.077 0.295,0.124 0.545,0.143 2.019,0 3.788,-1.112 5.308,-3.339 1.022,-1.96 1.52,-3.845 1.498,-5.652 l -0.137,-1.684 1.498,-0.799 V 5.252 h 3.336 L 37.57,6.85 Z"
             style="fill:#000000;fill-opacity:1;fill-rule:nonzero;stroke:none"
             id="path211"
             inkscape:connector-curvature="0" />
        </g>
        <g
           id="g213"
           transform="translate(172.3066,173.0518)">
          <path
             d="m 0,0 c -0.567,0.495 -0.964,1.313 -1.191,2.455 l -0.68,0.485 c 0,-0.323 0.011,-0.718 0.033,-1.184 0.024,-0.467 0.057,-1.013 0.103,-1.642 0.068,-0.647 0.113,-1.208 0.136,-1.684 0.022,-0.475 0.034,-0.875 0.034,-1.198 -0.386,0.989 -0.897,1.698 -1.533,2.126 -0.549,0.372 -1.31,0.572 -2.255,0.621 L -5.378,0 h -0.407 -2.178 -16.201 l 1.94,-1.598 h 2.008 v -9.447 l 2.586,-2.256 c 0.818,1.466 1.924,2.755 3.319,3.868 1.396,1.113 2.944,1.955 4.646,2.526 -0.432,-1.427 -0.647,-2.836 -0.647,-4.225 0,-0.742 0.095,-1.694 0.289,-2.854 0.193,-1.161 0.482,-2.493 0.868,-3.996 l 1.327,-0.543 c -0.499,2.074 -0.749,3.711 -0.749,4.91 0,1.198 0.226,2.445 0.681,3.74 0.454,1.293 1.111,2.644 1.974,4.052 l -3.132,1.998 c -0.635,-0.209 -1.339,-0.48 -2.109,-0.813 -0.772,-0.333 -1.566,-0.724 -2.383,-1.17 -0.815,-0.447 -1.616,-0.942 -2.398,-1.484 -0.784,-0.542 -1.515,-1.127 -2.196,-1.756 v 7.45 h 12.082 c 0.544,0 1.072,-0.081 1.583,-0.242 0.511,-0.162 0.964,-0.381 1.362,-0.658 0.395,-0.275 0.708,-0.613 0.934,-1.012 0.228,-0.401 0.341,-0.848 0.341,-1.342 V -16.698 L 0,-18.296 V -1.598 H 3.574 L 1.701,0 Z"
             style="fill:#000000;fill-opacity:1;fill-rule:nonzero;stroke:none"
             id="path215"
             inkscape:connector-curvature="0" />
        </g>
        <g
           id="g217"
           transform="translate(192.8965,164.6598)">
          <path
             d="m 0,0 c 1.021,0.971 1.531,2.37 1.531,4.196 0,0.533 -0.126,1.014 -0.375,1.442 -0.25,0.428 -0.595,0.795 -1.037,1.099 -0.443,0.304 -0.954,0.537 -1.532,0.7 -0.578,0.161 -1.186,0.242 -1.82,0.242 -1.884,0 -3.654,-0.448 -5.31,-1.342 -0.907,-0.495 -1.604,-1.061 -2.093,-1.698 -0.488,-0.638 -0.731,-1.318 -0.731,-2.041 0,-1.598 0.896,-2.398 2.688,-2.398 1.316,0 1.974,0.618 1.974,1.856 0,0.551 -0.408,1.056 -1.225,1.512 0.544,0.781 1.372,1.409 2.485,1.884 0.521,0.209 1.049,0.366 1.583,0.471 0.532,0.104 1.082,0.158 1.649,0.158 1.634,0 2.45,-0.647 2.45,-1.941 0,-0.991 -0.487,-1.666 -1.463,-2.027 -0.522,0.247 -1.055,0.371 -1.599,0.371 -0.659,0 -1.202,-0.214 -1.633,-0.642 -0.432,-0.428 -0.646,-0.918 -0.646,-1.47 0,-0.553 0.231,-1.014 0.697,-1.385 0.464,-0.371 1.026,-0.556 1.683,-0.556 0.682,0 1.283,0.228 1.805,0.684 0.816,-0.495 1.225,-1.037 1.225,-1.627 0,-0.456 -0.119,-0.875 -0.358,-1.255 -0.238,-0.38 -0.561,-0.7 -0.969,-0.957 -0.41,-0.256 -0.88,-0.457 -1.413,-0.598 -0.534,-0.144 -1.084,-0.215 -1.65,-0.215 -1.385,0 -2.689,0.348 -3.914,1.042 -1.226,0.694 -2.36,1.708 -3.403,3.04 -0.523,0.666 -1.135,1.608 -1.838,2.826 -0.703,1.217 -1.327,2.663 -1.872,4.338 l -1.497,0.457 c 3.086,-9.477 7.283,-14.215 12.591,-14.215 1.771,0 3.177,0.409 4.22,1.228 1.044,0.818 1.566,1.969 1.566,3.454 C 1.769,-2.359 1.179,-1.236 0,0"
             style="fill:#000000;fill-opacity:1;fill-rule:nonzero;stroke:none"
             id="path219"
             inkscape:connector-curvature="0" />
        </g>
      </g>
    </g>
  </g>
</svg>
